M48
;GenerationSoftware,Autodesk,EAGLE,9.7.0*%
;CreationDate,2025-04-06T08:33:02Z*%
FMAT,2
ICI,OFF
METRIC,TZ,000.000
T3C0.300
T2C0.350
T1C0.650
%
G90
M71
T1
X175087Y13650
X175087Y7870
T2
X171000Y6300
X175900Y9500
X40300Y2900
X47500Y2900
X45700Y2900
X43900Y2900
X42100Y2900
X38500Y2900
X47500Y1100
X45700Y1100
X43900Y1100
X42100Y1100
X40300Y1100
X38500Y1100
X47500Y-700
X45700Y-700
X43900Y-700
X40300Y-2500
X42100Y-2500
X43900Y-2500
X45700Y-2500
X47500Y-2500
X38500Y-700
X40300Y-700
X42100Y-700
T3
X20500Y52000
X20750Y43875
X21625Y26875
X25000Y9500
X75500Y-27125
X51125Y-25375
X63250Y14000
X63250Y23500
X19625Y-10000
X27500Y7000
X20625Y28000
X28750Y9500
X36625Y24375
X38750Y-24250
X76000Y-27625
X49750Y-26750
X32375Y-13625
X64125Y16000
X64125Y26500
X24750Y14625
X27500Y11875
X35250Y27000
X28500Y-9875
X30375Y18000
X23125Y24500
X20250Y57000
X22750Y50375
X51125Y11500
X53250Y16250
X75375Y-26125
X50875Y-18750
X74500Y21750
X53125Y17875
X47250Y12000
X45875Y-27375
X40375Y-21875
X35125Y-16625
X40250Y59000
X37125Y55875
X42375Y61250
X25000Y26875
X30000Y26875
X35250Y35625
X36625Y35625
X80375Y25750
X99500Y6625
X58125Y17875
X63500Y12500
X52375Y11000
X40125Y18500
X153750Y-14875
X163625Y-24750
X168375Y-33250
X33750Y23625
X36250Y23625
X98375Y13375
X38125Y39375
X93500Y24125
X130375Y-16125
X98625Y11625
X81000Y-30000
X78625Y21750
X36375Y21625
X37625Y22875
X73375Y61250
X51875Y55250
X23625Y10000
X43750Y56625
X40125Y66000
X94125Y19375
X90375Y23125
X33625Y12500
X79875Y24250
X96625Y16250
X94875Y14500
X49625Y12000
X62625Y14000
X77000Y-27000
X30125Y15375
X45000Y38875
X38625Y38875
X76500Y-29375
X26875Y7000
X37125Y41625
X45500Y55750
X67750Y61625
X37625Y27250
X70000Y63875
X138000Y-4125
X134250Y-7875
X135875Y-6875
X138375Y-7000
X71000Y-25625
X84000Y-22125
X80125Y-1250
X80375Y-250
X80625Y-8875
X81125Y-27125
X76500Y-5375
X159750Y-30375
X77250Y-1250
X80375Y25125
X81625Y-26000
X74625Y-5125
X62625Y-6375
X72125Y-30375
X88750Y-21625
X74750Y-23250
X80000Y-18000
X80125Y-27625
X90625Y-18750
X36250Y61875
X43625Y61875
X97750Y3375
X110250Y3375
X150500Y-15625
X101375Y2750
X97375Y-1250
X171750Y8750
X44000Y38250
X173000Y9375
X168500Y16250
X175125Y11500
X167500Y13625
X173000Y11375
X170250Y14375
X173000Y12375
X162875Y16250
X37625Y9750
X150500Y-1750
X148125Y-125
X22875Y53125
X35250Y53500
X38250Y13375
X164500Y-25125
X162875Y-24750
X62625Y17875
X40125Y-22875
X21875Y-13375
X62625Y-5625
M30