G04 EAGLE Gerber RS-274X export*
G75*
%MOMM*%
%FSLAX34Y34*%
%LPD*%
%INSolderpaste Top*%
%IPPOS*%
%AMOC8*
5,1,8,0,0,1.08239X$1,22.5*%
G01*
G04 Define Apertures*
%ADD10R,1.400000X1.050000*%
%ADD11R,0.700000X0.900000*%
%ADD12R,1.400000X1.400000*%
%ADD13R,0.900000X0.700000*%
%ADD14R,2.000000X2.200000*%
%ADD15R,0.800000X0.800000*%
%ADD16R,1.200000X0.600000*%
%ADD17R,0.970000X0.940000*%
%ADD18R,0.800000X0.900000*%
%ADD19R,1.150000X0.800000*%
%ADD20R,0.900000X0.600000*%
%ADD21R,0.300000X0.800000*%
%ADD22R,0.400000X0.800000*%
%ADD23R,1.150000X0.300000*%
%ADD24R,2.000000X2.180000*%
%ADD25R,1.200000X2.000000*%
%ADD26R,0.600000X1.350000*%
%ADD27R,1.200000X1.800000*%
%ADD28R,1.900000X1.400000*%
%ADD29R,1.500000X0.700000*%
%ADD30R,0.127000X0.127000*%
%ADD31R,0.550000X1.200000*%
%ADD32R,3.600000X1.500000*%
%ADD33R,1.050000X0.500000*%
%ADD34C,0.125000*%
%ADD35R,1.168400X1.600200*%
%ADD36R,1.010000X1.460000*%
%ADD37C,0.110000*%
%ADD38R,0.900000X1.500000*%
%ADD39C,0.147500*%
%ADD40R,0.560000X0.820000*%
%ADD41C,0.067500*%
%ADD42C,0.101600*%
D10*
G36*
X780955Y665650D02*
X794953Y665479D01*
X794825Y654980D01*
X780827Y655151D01*
X780955Y665650D01*
G37*
G36*
X745958Y666078D02*
X759956Y665907D01*
X759828Y655408D01*
X745830Y655579D01*
X745958Y666078D01*
G37*
G36*
X745775Y651079D02*
X759773Y650908D01*
X759645Y640409D01*
X745647Y640580D01*
X745775Y651079D01*
G37*
G36*
X780772Y650651D02*
X794770Y650480D01*
X794642Y639981D01*
X780644Y640152D01*
X780772Y650651D01*
G37*
D11*
X1584000Y-318700D03*
X1597000Y-318700D03*
X429200Y590300D03*
X442200Y590300D03*
D12*
X1130900Y123400D03*
X1108900Y123400D03*
D11*
X1367900Y-61075D03*
X1380900Y-61075D03*
X1409400Y37700D03*
X1422400Y37700D03*
D13*
X1029300Y14200D03*
X1029300Y27200D03*
D11*
X1572800Y-368700D03*
X1585800Y-368700D03*
X1385000Y-118500D03*
X1398000Y-118500D03*
D14*
G36*
X1203055Y-68096D02*
X1202881Y-88094D01*
X1180883Y-87902D01*
X1181057Y-67904D01*
X1203055Y-68096D01*
G37*
G36*
X1203317Y-38098D02*
X1203143Y-58096D01*
X1181145Y-57904D01*
X1181319Y-37906D01*
X1203317Y-38098D01*
G37*
D11*
X681600Y-27100D03*
X694600Y-27100D03*
G36*
X1707623Y204054D02*
X1708452Y197104D01*
X1699517Y196038D01*
X1698688Y202988D01*
X1707623Y204054D01*
G37*
G36*
X1706083Y216962D02*
X1706912Y210012D01*
X1697977Y208946D01*
X1697148Y215896D01*
X1706083Y216962D01*
G37*
X743400Y622100D03*
X756400Y622100D03*
X1661400Y190500D03*
X1648400Y190500D03*
X682600Y624300D03*
X695600Y624300D03*
X800700Y-40700D03*
X813700Y-40700D03*
X1028400Y181300D03*
X1041400Y181300D03*
X228600Y539700D03*
X241600Y539700D03*
D10*
G36*
X631300Y665528D02*
X645297Y665308D01*
X645132Y654810D01*
X631135Y655030D01*
X631300Y665528D01*
G37*
G36*
X596304Y666078D02*
X610301Y665858D01*
X610136Y655360D01*
X596139Y655580D01*
X596304Y666078D01*
G37*
G36*
X596068Y651080D02*
X610065Y650860D01*
X609900Y640362D01*
X595903Y640582D01*
X596068Y651080D01*
G37*
G36*
X631064Y650530D02*
X645061Y650310D01*
X644896Y639812D01*
X630899Y640032D01*
X631064Y650530D01*
G37*
D15*
X1403400Y-56000D03*
X1403400Y-41000D03*
D11*
X362000Y609900D03*
X375000Y609900D03*
D16*
X1644700Y162400D03*
X1644700Y152900D03*
X1644700Y143400D03*
X1669700Y143400D03*
X1669700Y152900D03*
X1669700Y162400D03*
D17*
X261600Y-102300D03*
X276600Y-102300D03*
X165400Y-100300D03*
X180400Y-100300D03*
X203200Y-177300D03*
X218200Y-177300D03*
D18*
X1481400Y10800D03*
X1502400Y10800D03*
D19*
X769500Y-80300D03*
X804500Y-80300D03*
X772700Y-113500D03*
X807700Y-113500D03*
X611100Y-93500D03*
X646100Y-93500D03*
D17*
X313700Y-100100D03*
X328700Y-100100D03*
D18*
X976900Y24800D03*
X997900Y24800D03*
D17*
X188000Y-133300D03*
X203000Y-133300D03*
X262800Y-140300D03*
X277800Y-140300D03*
D11*
X906000Y-176100D03*
X919000Y-176100D03*
X677400Y-210100D03*
X690400Y-210100D03*
X846000Y-212300D03*
X859000Y-212300D03*
X893600Y-207300D03*
X906600Y-207300D03*
X845400Y-176100D03*
X858400Y-176100D03*
X736800Y-168100D03*
X749800Y-168100D03*
X799500Y-212500D03*
X812500Y-212500D03*
X799600Y-171500D03*
X812600Y-171500D03*
X744700Y-213500D03*
X757700Y-213500D03*
X668800Y-166500D03*
X681800Y-166500D03*
D20*
X504900Y564400D03*
X504900Y554900D03*
X504900Y545400D03*
X532900Y545400D03*
X532900Y564400D03*
X1082700Y3600D03*
X1082700Y13100D03*
X1082700Y22600D03*
X1054700Y22600D03*
X1054700Y3600D03*
D21*
X820200Y-284100D03*
X815200Y-284100D03*
X810200Y-284100D03*
X805200Y-284100D03*
X800200Y-284100D03*
X795200Y-284100D03*
X790200Y-284100D03*
X785200Y-284100D03*
X780200Y-284100D03*
X775200Y-284100D03*
X770200Y-284100D03*
X765200Y-284100D03*
X760200Y-284100D03*
X755200Y-284100D03*
X750200Y-284100D03*
X745200Y-284100D03*
X740200Y-284100D03*
X735200Y-284100D03*
X730200Y-284100D03*
X725200Y-284100D03*
X720200Y-284100D03*
X715200Y-284100D03*
X710200Y-284100D03*
X705200Y-284100D03*
D22*
X830200Y-309100D03*
X695200Y-309100D03*
D23*
X1739978Y73673D03*
X1739858Y81363D03*
X1740120Y95100D03*
X1740120Y105100D03*
X1740120Y110100D03*
X1740120Y120100D03*
X1739815Y133151D03*
X1739716Y141303D03*
X1739414Y137998D03*
X1739767Y129849D03*
X1740120Y125100D03*
X1740120Y115100D03*
X1740120Y100100D03*
X1740120Y90100D03*
X1740059Y85768D03*
X1739856Y76785D03*
D24*
X1785170Y56500D03*
X1785170Y158700D03*
X1745870Y56500D03*
X1745870Y158700D03*
D25*
G36*
X1818065Y-261374D02*
X1817814Y-273371D01*
X1797819Y-272952D01*
X1798070Y-260955D01*
X1818065Y-261374D01*
G37*
G36*
X1819238Y-205387D02*
X1818987Y-217384D01*
X1798992Y-216965D01*
X1799243Y-204968D01*
X1819238Y-205387D01*
G37*
D26*
G36*
X1778283Y-250540D02*
X1778157Y-256537D01*
X1764661Y-256254D01*
X1764787Y-250257D01*
X1778283Y-250540D01*
G37*
G36*
X1778492Y-240542D02*
X1778366Y-246539D01*
X1764870Y-246256D01*
X1764996Y-240259D01*
X1778492Y-240542D01*
G37*
G36*
X1778702Y-230544D02*
X1778576Y-236541D01*
X1765080Y-236258D01*
X1765206Y-230261D01*
X1778702Y-230544D01*
G37*
G36*
X1778911Y-220546D02*
X1778785Y-226543D01*
X1765289Y-226260D01*
X1765415Y-220263D01*
X1778911Y-220546D01*
G37*
D27*
X292922Y491500D03*
X292922Y548500D03*
D28*
X150422Y461500D03*
X160422Y593000D03*
D29*
X188922Y509500D03*
X192922Y520500D03*
X188922Y531500D03*
X186922Y542500D03*
X188922Y553500D03*
X186922Y564500D03*
X188922Y575500D03*
X188922Y586500D03*
D27*
X292922Y520000D03*
X292922Y577000D03*
D30*
X684840Y-121500D03*
X730560Y-121500D03*
D31*
X1377000Y-99101D03*
X1386500Y-99101D03*
X1396000Y-99101D03*
X1396000Y-73099D03*
X1377000Y-73099D03*
D32*
X1666000Y61900D03*
X1666000Y106900D03*
D18*
X1523900Y-4600D03*
X1504900Y-4600D03*
X1514400Y-25600D03*
X584300Y-278400D03*
X603300Y-278400D03*
X593800Y-257400D03*
D33*
X613400Y-43000D03*
X613400Y-56000D03*
X634400Y-49500D03*
D11*
X223500Y58700D03*
X236500Y58700D03*
X505700Y-233300D03*
X518700Y-233300D03*
X1342100Y-90500D03*
X1355100Y-90500D03*
X1623200Y-258300D03*
X1636200Y-258300D03*
X941100Y166400D03*
X954100Y166400D03*
X1476000Y30400D03*
X1489000Y30400D03*
X624600Y546100D03*
X637600Y546100D03*
X1639800Y-389300D03*
X1652800Y-389300D03*
X966600Y181900D03*
X953600Y181900D03*
X1702400Y159300D03*
X1715400Y159300D03*
G36*
X1621956Y66672D02*
X1622334Y59683D01*
X1613348Y59196D01*
X1612970Y66185D01*
X1621956Y66672D01*
G37*
G36*
X1621252Y79652D02*
X1621630Y72663D01*
X1612644Y72176D01*
X1612266Y79165D01*
X1621252Y79652D01*
G37*
X1332300Y-67700D03*
X1345300Y-67700D03*
X759900Y-44700D03*
X772900Y-44700D03*
X718100Y-25700D03*
X731100Y-25700D03*
X505400Y-274300D03*
X518400Y-274300D03*
X504300Y-261300D03*
X517300Y-261300D03*
X505200Y-246300D03*
X518200Y-246300D03*
X504100Y-218300D03*
X517100Y-218300D03*
X505000Y-203300D03*
X518000Y-203300D03*
D10*
G36*
X381016Y665568D02*
X395012Y665299D01*
X394810Y654802D01*
X380814Y655071D01*
X381016Y665568D01*
G37*
G36*
X346023Y666240D02*
X360019Y665971D01*
X359817Y655474D01*
X345821Y655743D01*
X346023Y666240D01*
G37*
G36*
X345735Y651243D02*
X359731Y650974D01*
X359529Y640477D01*
X345533Y640746D01*
X345735Y651243D01*
G37*
G36*
X380728Y650571D02*
X394724Y650302D01*
X394522Y639805D01*
X380526Y640074D01*
X380728Y650571D01*
G37*
D11*
X430700Y556700D03*
X443700Y556700D03*
X1112000Y47400D03*
X1125000Y47400D03*
X352700Y550400D03*
X365700Y550400D03*
G36*
X559179Y-234732D02*
X559130Y-241731D01*
X550131Y-241668D01*
X550180Y-234669D01*
X559179Y-234732D01*
G37*
G36*
X559269Y-221732D02*
X559220Y-228731D01*
X550221Y-228668D01*
X550270Y-221669D01*
X559269Y-221732D01*
G37*
X428200Y574900D03*
X441200Y574900D03*
D34*
X1691225Y-321675D02*
X1700135Y-321675D01*
X1691225Y-321675D02*
X1691225Y-317925D01*
X1700135Y-317925D01*
X1700135Y-321675D01*
X1700135Y-320488D02*
X1691225Y-320488D01*
X1691225Y-319301D02*
X1700135Y-319301D01*
X1700135Y-318114D02*
X1691225Y-318114D01*
X1691225Y-329675D02*
X1700135Y-329675D01*
X1691225Y-329675D02*
X1691225Y-325925D01*
X1700135Y-325925D01*
X1700135Y-329675D01*
X1700135Y-328488D02*
X1691225Y-328488D01*
X1691225Y-327301D02*
X1700135Y-327301D01*
X1700135Y-326114D02*
X1691225Y-326114D01*
X1691225Y-337675D02*
X1700135Y-337675D01*
X1691225Y-337675D02*
X1691225Y-333925D01*
X1700135Y-333925D01*
X1700135Y-337675D01*
X1700135Y-336488D02*
X1691225Y-336488D01*
X1691225Y-335301D02*
X1700135Y-335301D01*
X1700135Y-334114D02*
X1691225Y-334114D01*
X1691225Y-345675D02*
X1700135Y-345675D01*
X1691225Y-345675D02*
X1691225Y-341925D01*
X1700135Y-341925D01*
X1700135Y-345675D01*
X1700135Y-344488D02*
X1691225Y-344488D01*
X1691225Y-343301D02*
X1700135Y-343301D01*
X1700135Y-342114D02*
X1691225Y-342114D01*
X1670975Y-345875D02*
X1662065Y-345875D01*
X1662065Y-342125D01*
X1670975Y-342125D01*
X1670975Y-345875D01*
X1670975Y-344688D02*
X1662065Y-344688D01*
X1662065Y-343501D02*
X1670975Y-343501D01*
X1670975Y-342314D02*
X1662065Y-342314D01*
X1662065Y-337675D02*
X1670975Y-337675D01*
X1662065Y-337675D02*
X1662065Y-333925D01*
X1670975Y-333925D01*
X1670975Y-337675D01*
X1670975Y-336488D02*
X1662065Y-336488D01*
X1662065Y-335301D02*
X1670975Y-335301D01*
X1670975Y-334114D02*
X1662065Y-334114D01*
X1662065Y-329675D02*
X1670975Y-329675D01*
X1662065Y-329675D02*
X1662065Y-325925D01*
X1670975Y-325925D01*
X1670975Y-329675D01*
X1670975Y-328488D02*
X1662065Y-328488D01*
X1662065Y-327301D02*
X1670975Y-327301D01*
X1670975Y-326114D02*
X1662065Y-326114D01*
X1662065Y-321675D02*
X1670975Y-321675D01*
X1662065Y-321675D02*
X1662065Y-317925D01*
X1670975Y-317925D01*
X1670975Y-321675D01*
X1670975Y-320488D02*
X1662065Y-320488D01*
X1662065Y-319301D02*
X1670975Y-319301D01*
X1670975Y-318114D02*
X1662065Y-318114D01*
D35*
X591980Y588900D03*
X607220Y588900D03*
D36*
X595550Y169200D03*
X610250Y169200D03*
X595550Y150000D03*
X610250Y150000D03*
D37*
X568100Y177000D02*
X559800Y177000D01*
X559800Y180300D01*
X568100Y180300D01*
X568100Y177000D01*
X568100Y178045D02*
X559800Y178045D01*
X559800Y179090D02*
X568100Y179090D01*
X568100Y180135D02*
X559800Y180135D01*
X559800Y164300D02*
X568100Y164300D01*
X559800Y164300D02*
X559800Y167600D01*
X568100Y167600D01*
X568100Y164300D01*
X568100Y165345D02*
X559800Y165345D01*
X559800Y166390D02*
X568100Y166390D01*
X568100Y167435D02*
X559800Y167435D01*
X559800Y151600D02*
X568100Y151600D01*
X559800Y151600D02*
X559800Y154900D01*
X568100Y154900D01*
X568100Y151600D01*
X568100Y152645D02*
X559800Y152645D01*
X559800Y153690D02*
X568100Y153690D01*
X568100Y154735D02*
X559800Y154735D01*
X559800Y138900D02*
X568100Y138900D01*
X559800Y138900D02*
X559800Y142200D01*
X568100Y142200D01*
X568100Y138900D01*
X568100Y139945D02*
X559800Y139945D01*
X559800Y140990D02*
X568100Y140990D01*
X568100Y142035D02*
X559800Y142035D01*
X637700Y138900D02*
X646000Y138900D01*
X637700Y138900D02*
X637700Y142200D01*
X646000Y142200D01*
X646000Y138900D01*
X646000Y139945D02*
X637700Y139945D01*
X637700Y140990D02*
X646000Y140990D01*
X646000Y142035D02*
X637700Y142035D01*
X637700Y151600D02*
X646000Y151600D01*
X637700Y151600D02*
X637700Y154900D01*
X646000Y154900D01*
X646000Y151600D01*
X646000Y152645D02*
X637700Y152645D01*
X637700Y153690D02*
X646000Y153690D01*
X646000Y154735D02*
X637700Y154735D01*
X637700Y164300D02*
X646000Y164300D01*
X637700Y164300D02*
X637700Y167600D01*
X646000Y167600D01*
X646000Y164300D01*
X646000Y165345D02*
X637700Y165345D01*
X637700Y166390D02*
X646000Y166390D01*
X646000Y167435D02*
X637700Y167435D01*
X637700Y177000D02*
X646000Y177000D01*
X637700Y177000D02*
X637700Y180300D01*
X646000Y180300D01*
X646000Y177000D01*
X646000Y178045D02*
X637700Y178045D01*
X637700Y179090D02*
X646000Y179090D01*
X646000Y180135D02*
X637700Y180135D01*
D38*
X211400Y81900D03*
X224100Y81900D03*
X236800Y81900D03*
X249500Y81900D03*
X262200Y81900D03*
X274900Y81900D03*
X287600Y81900D03*
X300300Y81900D03*
X313000Y81900D03*
X325700Y81900D03*
X338400Y81900D03*
X351100Y81900D03*
X363800Y81900D03*
X376500Y81900D03*
X376500Y256900D03*
X363800Y256900D03*
X351100Y256900D03*
X338400Y256900D03*
X325700Y256900D03*
X313000Y256900D03*
X300300Y256900D03*
X287600Y256900D03*
X274900Y256900D03*
X262200Y256900D03*
X249500Y256900D03*
X236800Y256900D03*
X224100Y256900D03*
X211400Y256900D03*
D15*
X268600Y154350D03*
X256100Y141850D03*
X256100Y154350D03*
X256100Y166850D03*
X268600Y141850D03*
X268600Y166850D03*
X281100Y141850D03*
X281100Y154350D03*
X281100Y166850D03*
D39*
X966263Y62963D02*
X966263Y43937D01*
X961837Y43937D01*
X961837Y62963D01*
X966263Y62963D01*
X966263Y45338D02*
X961837Y45338D01*
X961837Y46739D02*
X966263Y46739D01*
X966263Y48140D02*
X961837Y48140D01*
X961837Y49541D02*
X966263Y49541D01*
X966263Y50942D02*
X961837Y50942D01*
X961837Y52343D02*
X966263Y52343D01*
X966263Y53744D02*
X961837Y53744D01*
X961837Y55145D02*
X966263Y55145D01*
X966263Y56546D02*
X961837Y56546D01*
X961837Y57947D02*
X966263Y57947D01*
X966263Y59348D02*
X961837Y59348D01*
X961837Y60749D02*
X966263Y60749D01*
X966263Y62150D02*
X961837Y62150D01*
X978963Y62963D02*
X978963Y43937D01*
X974537Y43937D01*
X974537Y62963D01*
X978963Y62963D01*
X978963Y45338D02*
X974537Y45338D01*
X974537Y46739D02*
X978963Y46739D01*
X978963Y48140D02*
X974537Y48140D01*
X974537Y49541D02*
X978963Y49541D01*
X978963Y50942D02*
X974537Y50942D01*
X974537Y52343D02*
X978963Y52343D01*
X978963Y53744D02*
X974537Y53744D01*
X974537Y55145D02*
X978963Y55145D01*
X978963Y56546D02*
X974537Y56546D01*
X974537Y57947D02*
X978963Y57947D01*
X978963Y59348D02*
X974537Y59348D01*
X974537Y60749D02*
X978963Y60749D01*
X978963Y62150D02*
X974537Y62150D01*
X991663Y62963D02*
X991663Y43937D01*
X987237Y43937D01*
X987237Y62963D01*
X991663Y62963D01*
X991663Y45338D02*
X987237Y45338D01*
X987237Y46739D02*
X991663Y46739D01*
X991663Y48140D02*
X987237Y48140D01*
X987237Y49541D02*
X991663Y49541D01*
X991663Y50942D02*
X987237Y50942D01*
X987237Y52343D02*
X991663Y52343D01*
X991663Y53744D02*
X987237Y53744D01*
X987237Y55145D02*
X991663Y55145D01*
X991663Y56546D02*
X987237Y56546D01*
X987237Y57947D02*
X991663Y57947D01*
X991663Y59348D02*
X987237Y59348D01*
X987237Y60749D02*
X991663Y60749D01*
X991663Y62150D02*
X987237Y62150D01*
X1004363Y62963D02*
X1004363Y43937D01*
X999937Y43937D01*
X999937Y62963D01*
X1004363Y62963D01*
X1004363Y45338D02*
X999937Y45338D01*
X999937Y46739D02*
X1004363Y46739D01*
X1004363Y48140D02*
X999937Y48140D01*
X999937Y49541D02*
X1004363Y49541D01*
X1004363Y50942D02*
X999937Y50942D01*
X999937Y52343D02*
X1004363Y52343D01*
X1004363Y53744D02*
X999937Y53744D01*
X999937Y55145D02*
X1004363Y55145D01*
X1004363Y56546D02*
X999937Y56546D01*
X999937Y57947D02*
X1004363Y57947D01*
X1004363Y59348D02*
X999937Y59348D01*
X999937Y60749D02*
X1004363Y60749D01*
X1004363Y62150D02*
X999937Y62150D01*
X1017063Y62963D02*
X1017063Y43937D01*
X1012637Y43937D01*
X1012637Y62963D01*
X1017063Y62963D01*
X1017063Y45338D02*
X1012637Y45338D01*
X1012637Y46739D02*
X1017063Y46739D01*
X1017063Y48140D02*
X1012637Y48140D01*
X1012637Y49541D02*
X1017063Y49541D01*
X1017063Y50942D02*
X1012637Y50942D01*
X1012637Y52343D02*
X1017063Y52343D01*
X1017063Y53744D02*
X1012637Y53744D01*
X1012637Y55145D02*
X1017063Y55145D01*
X1017063Y56546D02*
X1012637Y56546D01*
X1012637Y57947D02*
X1017063Y57947D01*
X1017063Y59348D02*
X1012637Y59348D01*
X1012637Y60749D02*
X1017063Y60749D01*
X1017063Y62150D02*
X1012637Y62150D01*
X1029763Y62963D02*
X1029763Y43937D01*
X1025337Y43937D01*
X1025337Y62963D01*
X1029763Y62963D01*
X1029763Y45338D02*
X1025337Y45338D01*
X1025337Y46739D02*
X1029763Y46739D01*
X1029763Y48140D02*
X1025337Y48140D01*
X1025337Y49541D02*
X1029763Y49541D01*
X1029763Y50942D02*
X1025337Y50942D01*
X1025337Y52343D02*
X1029763Y52343D01*
X1029763Y53744D02*
X1025337Y53744D01*
X1025337Y55145D02*
X1029763Y55145D01*
X1029763Y56546D02*
X1025337Y56546D01*
X1025337Y57947D02*
X1029763Y57947D01*
X1029763Y59348D02*
X1025337Y59348D01*
X1025337Y60749D02*
X1029763Y60749D01*
X1029763Y62150D02*
X1025337Y62150D01*
X1042463Y62963D02*
X1042463Y43937D01*
X1038037Y43937D01*
X1038037Y62963D01*
X1042463Y62963D01*
X1042463Y45338D02*
X1038037Y45338D01*
X1038037Y46739D02*
X1042463Y46739D01*
X1042463Y48140D02*
X1038037Y48140D01*
X1038037Y49541D02*
X1042463Y49541D01*
X1042463Y50942D02*
X1038037Y50942D01*
X1038037Y52343D02*
X1042463Y52343D01*
X1042463Y53744D02*
X1038037Y53744D01*
X1038037Y55145D02*
X1042463Y55145D01*
X1042463Y56546D02*
X1038037Y56546D01*
X1038037Y57947D02*
X1042463Y57947D01*
X1042463Y59348D02*
X1038037Y59348D01*
X1038037Y60749D02*
X1042463Y60749D01*
X1042463Y62150D02*
X1038037Y62150D01*
X1055163Y62963D02*
X1055163Y43937D01*
X1050737Y43937D01*
X1050737Y62963D01*
X1055163Y62963D01*
X1055163Y45338D02*
X1050737Y45338D01*
X1050737Y46739D02*
X1055163Y46739D01*
X1055163Y48140D02*
X1050737Y48140D01*
X1050737Y49541D02*
X1055163Y49541D01*
X1055163Y50942D02*
X1050737Y50942D01*
X1050737Y52343D02*
X1055163Y52343D01*
X1055163Y53744D02*
X1050737Y53744D01*
X1050737Y55145D02*
X1055163Y55145D01*
X1055163Y56546D02*
X1050737Y56546D01*
X1050737Y57947D02*
X1055163Y57947D01*
X1055163Y59348D02*
X1050737Y59348D01*
X1050737Y60749D02*
X1055163Y60749D01*
X1055163Y62150D02*
X1050737Y62150D01*
X1055163Y137037D02*
X1055163Y156063D01*
X1055163Y137037D02*
X1050737Y137037D01*
X1050737Y156063D01*
X1055163Y156063D01*
X1055163Y138438D02*
X1050737Y138438D01*
X1050737Y139839D02*
X1055163Y139839D01*
X1055163Y141240D02*
X1050737Y141240D01*
X1050737Y142641D02*
X1055163Y142641D01*
X1055163Y144042D02*
X1050737Y144042D01*
X1050737Y145443D02*
X1055163Y145443D01*
X1055163Y146844D02*
X1050737Y146844D01*
X1050737Y148245D02*
X1055163Y148245D01*
X1055163Y149646D02*
X1050737Y149646D01*
X1050737Y151047D02*
X1055163Y151047D01*
X1055163Y152448D02*
X1050737Y152448D01*
X1050737Y153849D02*
X1055163Y153849D01*
X1055163Y155250D02*
X1050737Y155250D01*
X1042463Y156063D02*
X1042463Y137037D01*
X1038037Y137037D01*
X1038037Y156063D01*
X1042463Y156063D01*
X1042463Y138438D02*
X1038037Y138438D01*
X1038037Y139839D02*
X1042463Y139839D01*
X1042463Y141240D02*
X1038037Y141240D01*
X1038037Y142641D02*
X1042463Y142641D01*
X1042463Y144042D02*
X1038037Y144042D01*
X1038037Y145443D02*
X1042463Y145443D01*
X1042463Y146844D02*
X1038037Y146844D01*
X1038037Y148245D02*
X1042463Y148245D01*
X1042463Y149646D02*
X1038037Y149646D01*
X1038037Y151047D02*
X1042463Y151047D01*
X1042463Y152448D02*
X1038037Y152448D01*
X1038037Y153849D02*
X1042463Y153849D01*
X1042463Y155250D02*
X1038037Y155250D01*
X1029763Y156063D02*
X1029763Y137037D01*
X1025337Y137037D01*
X1025337Y156063D01*
X1029763Y156063D01*
X1029763Y138438D02*
X1025337Y138438D01*
X1025337Y139839D02*
X1029763Y139839D01*
X1029763Y141240D02*
X1025337Y141240D01*
X1025337Y142641D02*
X1029763Y142641D01*
X1029763Y144042D02*
X1025337Y144042D01*
X1025337Y145443D02*
X1029763Y145443D01*
X1029763Y146844D02*
X1025337Y146844D01*
X1025337Y148245D02*
X1029763Y148245D01*
X1029763Y149646D02*
X1025337Y149646D01*
X1025337Y151047D02*
X1029763Y151047D01*
X1029763Y152448D02*
X1025337Y152448D01*
X1025337Y153849D02*
X1029763Y153849D01*
X1029763Y155250D02*
X1025337Y155250D01*
X1017063Y156063D02*
X1017063Y137037D01*
X1012637Y137037D01*
X1012637Y156063D01*
X1017063Y156063D01*
X1017063Y138438D02*
X1012637Y138438D01*
X1012637Y139839D02*
X1017063Y139839D01*
X1017063Y141240D02*
X1012637Y141240D01*
X1012637Y142641D02*
X1017063Y142641D01*
X1017063Y144042D02*
X1012637Y144042D01*
X1012637Y145443D02*
X1017063Y145443D01*
X1017063Y146844D02*
X1012637Y146844D01*
X1012637Y148245D02*
X1017063Y148245D01*
X1017063Y149646D02*
X1012637Y149646D01*
X1012637Y151047D02*
X1017063Y151047D01*
X1017063Y152448D02*
X1012637Y152448D01*
X1012637Y153849D02*
X1017063Y153849D01*
X1017063Y155250D02*
X1012637Y155250D01*
X1004363Y156063D02*
X1004363Y137037D01*
X999937Y137037D01*
X999937Y156063D01*
X1004363Y156063D01*
X1004363Y138438D02*
X999937Y138438D01*
X999937Y139839D02*
X1004363Y139839D01*
X1004363Y141240D02*
X999937Y141240D01*
X999937Y142641D02*
X1004363Y142641D01*
X1004363Y144042D02*
X999937Y144042D01*
X999937Y145443D02*
X1004363Y145443D01*
X1004363Y146844D02*
X999937Y146844D01*
X999937Y148245D02*
X1004363Y148245D01*
X1004363Y149646D02*
X999937Y149646D01*
X999937Y151047D02*
X1004363Y151047D01*
X1004363Y152448D02*
X999937Y152448D01*
X999937Y153849D02*
X1004363Y153849D01*
X1004363Y155250D02*
X999937Y155250D01*
X991663Y156063D02*
X991663Y137037D01*
X987237Y137037D01*
X987237Y156063D01*
X991663Y156063D01*
X991663Y138438D02*
X987237Y138438D01*
X987237Y139839D02*
X991663Y139839D01*
X991663Y141240D02*
X987237Y141240D01*
X987237Y142641D02*
X991663Y142641D01*
X991663Y144042D02*
X987237Y144042D01*
X987237Y145443D02*
X991663Y145443D01*
X991663Y146844D02*
X987237Y146844D01*
X987237Y148245D02*
X991663Y148245D01*
X991663Y149646D02*
X987237Y149646D01*
X987237Y151047D02*
X991663Y151047D01*
X991663Y152448D02*
X987237Y152448D01*
X987237Y153849D02*
X991663Y153849D01*
X991663Y155250D02*
X987237Y155250D01*
X978963Y156063D02*
X978963Y137037D01*
X974537Y137037D01*
X974537Y156063D01*
X978963Y156063D01*
X978963Y138438D02*
X974537Y138438D01*
X974537Y139839D02*
X978963Y139839D01*
X978963Y141240D02*
X974537Y141240D01*
X974537Y142641D02*
X978963Y142641D01*
X978963Y144042D02*
X974537Y144042D01*
X974537Y145443D02*
X978963Y145443D01*
X978963Y146844D02*
X974537Y146844D01*
X974537Y148245D02*
X978963Y148245D01*
X978963Y149646D02*
X974537Y149646D01*
X974537Y151047D02*
X978963Y151047D01*
X978963Y152448D02*
X974537Y152448D01*
X974537Y153849D02*
X978963Y153849D01*
X978963Y155250D02*
X974537Y155250D01*
X966263Y156063D02*
X966263Y137037D01*
X961837Y137037D01*
X961837Y156063D01*
X966263Y156063D01*
X966263Y138438D02*
X961837Y138438D01*
X961837Y139839D02*
X966263Y139839D01*
X966263Y141240D02*
X961837Y141240D01*
X961837Y142641D02*
X966263Y142641D01*
X966263Y144042D02*
X961837Y144042D01*
X961837Y145443D02*
X966263Y145443D01*
X966263Y146844D02*
X961837Y146844D01*
X961837Y148245D02*
X966263Y148245D01*
X966263Y149646D02*
X961837Y149646D01*
X961837Y151047D02*
X966263Y151047D01*
X966263Y152448D02*
X961837Y152448D01*
X961837Y153849D02*
X966263Y153849D01*
X966263Y155250D02*
X961837Y155250D01*
D40*
G36*
X1500291Y-141585D02*
X1500310Y-135986D01*
X1508509Y-136015D01*
X1508490Y-141614D01*
X1500291Y-141585D01*
G37*
D41*
X1510909Y-132435D02*
X1510934Y-125510D01*
X1512959Y-125517D01*
X1512934Y-132442D01*
X1510909Y-132435D01*
X1510911Y-131801D02*
X1512936Y-131801D01*
X1512939Y-131160D02*
X1510914Y-131160D01*
X1510916Y-130519D02*
X1512941Y-130519D01*
X1512943Y-129878D02*
X1510918Y-129878D01*
X1510921Y-129237D02*
X1512946Y-129237D01*
X1512948Y-128596D02*
X1510923Y-128596D01*
X1510925Y-127955D02*
X1512950Y-127955D01*
X1512953Y-127314D02*
X1510927Y-127314D01*
X1510930Y-126673D02*
X1512955Y-126673D01*
X1512957Y-126032D02*
X1510932Y-126032D01*
D42*
X1505423Y-125398D02*
X1505398Y-132509D01*
X1505423Y-125398D02*
X1508470Y-125409D01*
X1508445Y-132520D01*
X1505398Y-132509D01*
X1505401Y-131555D02*
X1508448Y-131555D01*
X1508452Y-130590D02*
X1505405Y-130590D01*
X1505408Y-129625D02*
X1508455Y-129625D01*
X1508459Y-128660D02*
X1505412Y-128660D01*
X1505415Y-127695D02*
X1508462Y-127695D01*
X1508465Y-126730D02*
X1505418Y-126730D01*
X1505422Y-125765D02*
X1508469Y-125765D01*
X1500423Y-125380D02*
X1500398Y-132491D01*
X1500423Y-125380D02*
X1503470Y-125391D01*
X1503445Y-132502D01*
X1500398Y-132491D01*
X1500401Y-131537D02*
X1503448Y-131537D01*
X1503452Y-130572D02*
X1500405Y-130572D01*
X1500408Y-129607D02*
X1503455Y-129607D01*
X1503459Y-128642D02*
X1500412Y-128642D01*
X1500415Y-127677D02*
X1503462Y-127677D01*
X1503465Y-126712D02*
X1500418Y-126712D01*
X1500422Y-125747D02*
X1503469Y-125747D01*
D41*
X1495934Y-125458D02*
X1495909Y-132383D01*
X1495934Y-125458D02*
X1497959Y-125465D01*
X1497934Y-132390D01*
X1495909Y-132383D01*
X1495911Y-131749D02*
X1497936Y-131749D01*
X1497939Y-131108D02*
X1495914Y-131108D01*
X1495916Y-130467D02*
X1497941Y-130467D01*
X1497943Y-129826D02*
X1495918Y-129826D01*
X1495921Y-129185D02*
X1497946Y-129185D01*
X1497948Y-128544D02*
X1495923Y-128544D01*
X1495925Y-127903D02*
X1497950Y-127903D01*
X1497953Y-127262D02*
X1495927Y-127262D01*
X1495930Y-126621D02*
X1497955Y-126621D01*
X1497957Y-125980D02*
X1495932Y-125980D01*
X1495866Y-145158D02*
X1495841Y-152083D01*
X1495866Y-145158D02*
X1497891Y-145165D01*
X1497866Y-152090D01*
X1495841Y-152083D01*
X1495843Y-151449D02*
X1497868Y-151449D01*
X1497871Y-150808D02*
X1495846Y-150808D01*
X1495848Y-150167D02*
X1497873Y-150167D01*
X1497875Y-149526D02*
X1495850Y-149526D01*
X1495853Y-148885D02*
X1497878Y-148885D01*
X1497880Y-148244D02*
X1495855Y-148244D01*
X1495857Y-147603D02*
X1497882Y-147603D01*
X1497885Y-146962D02*
X1495859Y-146962D01*
X1495862Y-146321D02*
X1497887Y-146321D01*
X1497889Y-145680D02*
X1495864Y-145680D01*
X1500866Y-145175D02*
X1500841Y-152100D01*
X1500866Y-145175D02*
X1502891Y-145182D01*
X1502866Y-152107D01*
X1500841Y-152100D01*
X1500843Y-151466D02*
X1502868Y-151466D01*
X1502871Y-150825D02*
X1500846Y-150825D01*
X1500848Y-150184D02*
X1502873Y-150184D01*
X1502875Y-149543D02*
X1500850Y-149543D01*
X1500853Y-148902D02*
X1502878Y-148902D01*
X1502880Y-148261D02*
X1500855Y-148261D01*
X1500857Y-147620D02*
X1502882Y-147620D01*
X1502885Y-146979D02*
X1500859Y-146979D01*
X1500862Y-146338D02*
X1502887Y-146338D01*
X1502889Y-145697D02*
X1500864Y-145697D01*
X1505866Y-145193D02*
X1505841Y-152118D01*
X1505866Y-145193D02*
X1507891Y-145200D01*
X1507866Y-152125D01*
X1505841Y-152118D01*
X1505843Y-151484D02*
X1507868Y-151484D01*
X1507871Y-150843D02*
X1505846Y-150843D01*
X1505848Y-150202D02*
X1507873Y-150202D01*
X1507875Y-149561D02*
X1505850Y-149561D01*
X1505853Y-148920D02*
X1507878Y-148920D01*
X1507880Y-148279D02*
X1505855Y-148279D01*
X1505857Y-147638D02*
X1507882Y-147638D01*
X1507885Y-146997D02*
X1505859Y-146997D01*
X1505862Y-146356D02*
X1507887Y-146356D01*
X1507889Y-145715D02*
X1505864Y-145715D01*
X1510866Y-145210D02*
X1510841Y-152135D01*
X1510866Y-145210D02*
X1512891Y-145217D01*
X1512866Y-152142D01*
X1510841Y-152135D01*
X1510843Y-151501D02*
X1512868Y-151501D01*
X1512871Y-150860D02*
X1510846Y-150860D01*
X1510848Y-150219D02*
X1512873Y-150219D01*
X1512875Y-149578D02*
X1510850Y-149578D01*
X1510853Y-148937D02*
X1512878Y-148937D01*
X1512880Y-148296D02*
X1510855Y-148296D01*
X1510857Y-147655D02*
X1512882Y-147655D01*
X1512885Y-147014D02*
X1510859Y-147014D01*
X1510862Y-146373D02*
X1512887Y-146373D01*
X1512889Y-145732D02*
X1510864Y-145732D01*
M02*
