G04 EAGLE Gerber RS-274X export*
G75*
%MOMM*%
%FSLAX34Y34*%
%LPD*%
%INSoldermask Bottom*%
%IPPOS*%
%AMOC8*
5,1,8,0,0,1.08239X$1,22.5*%
G01*
G04 Define Apertures*
%ADD10C,0.853200*%
%ADD11C,0.705600*%
%ADD12C,0.655600*%
D10*
X1750870Y78700D03*
X1750870Y136500D03*
D11*
X1710000Y63000D03*
X1759000Y95000D03*
D12*
X1597500Y-303750D03*
X1505000Y-156250D03*
X1013750Y27500D03*
X973750Y-12500D03*
X1717500Y87500D03*
X1730000Y93750D03*
X1685000Y162500D03*
X1751250Y115000D03*
X1675000Y136250D03*
X1730000Y113750D03*
X1702500Y143750D03*
X1730000Y123750D03*
X1628750Y162500D03*
X376250Y97500D03*
X1505000Y-17500D03*
X1481250Y-1250D03*
X228750Y531250D03*
X352500Y535000D03*
X381250Y393750D03*
X382500Y133750D03*
X1645000Y-251250D03*
X1628750Y-247500D03*
X626250Y178750D03*
X401250Y-228750D03*
X218750Y-133750D03*
X205000Y520000D03*
X207500Y438750D03*
X216250Y268750D03*
X250000Y95000D03*
X755000Y-271250D03*
X511250Y-253750D03*
X632500Y140000D03*
X632500Y235000D03*
X196250Y-100000D03*
X275000Y70000D03*
X206250Y280000D03*
X287500Y95000D03*
X366250Y243750D03*
X387500Y-242500D03*
X760000Y-276250D03*
X497500Y-267500D03*
X323750Y-136250D03*
X641250Y160000D03*
X641250Y265000D03*
X247500Y146250D03*
X275000Y118750D03*
X352500Y270000D03*
X285000Y-98750D03*
X303750Y180000D03*
X231250Y245000D03*
X202500Y570000D03*
X227500Y503750D03*
X511250Y115000D03*
X532500Y162500D03*
X753750Y-261250D03*
X508750Y-187500D03*
X745000Y217500D03*
X531250Y178750D03*
X472500Y120000D03*
X458750Y-273750D03*
X403750Y-218750D03*
X351250Y-166250D03*
X402500Y590000D03*
X371250Y558750D03*
X423750Y612500D03*
X250000Y268750D03*
X300000Y268750D03*
X352500Y356250D03*
X366250Y356250D03*
X803750Y257500D03*
X995000Y66250D03*
X581250Y178750D03*
X635000Y125000D03*
X523750Y110000D03*
X401250Y185000D03*
X1537500Y-148750D03*
X1636250Y-247500D03*
X1683750Y-332500D03*
X337500Y236250D03*
X362500Y236250D03*
X983750Y133750D03*
X440000Y382500D03*
X935000Y241250D03*
X1303750Y-161250D03*
X986250Y116250D03*
X810000Y-300000D03*
X786250Y217500D03*
X363750Y216250D03*
X376250Y228750D03*
X733750Y612500D03*
X518750Y552500D03*
X236250Y100000D03*
X437500Y566250D03*
X401250Y660000D03*
X941250Y193750D03*
X903750Y231250D03*
X336250Y125000D03*
X798750Y242500D03*
X966250Y162500D03*
X948750Y145000D03*
X496250Y120000D03*
X626250Y140000D03*
X770000Y-270000D03*
X301250Y153750D03*
X450000Y388750D03*
X386250Y388750D03*
X765000Y-293750D03*
X268750Y70000D03*
X371250Y416250D03*
X455000Y557500D03*
X677500Y616250D03*
X376250Y272500D03*
X700000Y638750D03*
X1380000Y-41250D03*
X1342500Y-78750D03*
X1358750Y-68750D03*
X1383750Y-70000D03*
X710000Y-256250D03*
X840000Y-221250D03*
X801250Y-12500D03*
X803750Y-2500D03*
X806250Y-88750D03*
X811250Y-271250D03*
X765000Y-53750D03*
X626250Y-56250D03*
X772500Y-12500D03*
X803750Y251250D03*
X816250Y-260000D03*
X746250Y-51250D03*
X626250Y-63750D03*
X721250Y-303750D03*
X887500Y-216250D03*
X747500Y-232500D03*
X800000Y-180000D03*
X801250Y-276250D03*
X906250Y-187500D03*
X362500Y618750D03*
X436250Y618750D03*
X977500Y33750D03*
X1102500Y33750D03*
D11*
X475000Y29000D03*
X457000Y29000D03*
X439000Y29000D03*
X421000Y29000D03*
X403000Y29000D03*
X385000Y29000D03*
X475000Y11000D03*
X457000Y11000D03*
X439000Y11000D03*
X421000Y11000D03*
X403000Y11000D03*
X385000Y11000D03*
X475000Y-7000D03*
X457000Y-7000D03*
X439000Y-7000D03*
X403000Y-25000D03*
X421000Y-25000D03*
X439000Y-25000D03*
X457000Y-25000D03*
X475000Y-25000D03*
X385000Y-7000D03*
X403000Y-7000D03*
X421000Y-7000D03*
M02*
