G04 EAGLE Gerber RS-274X export*
G75*
%MOMM*%
%FSLAX34Y34*%
%LPD*%
%INBottom Copper*%
%IPPOS*%
%AMOC8*
5,1,8,0,0,1.08239X$1,22.5*%
G01*
G04 Define Apertures*
%ADD10C,0.502400*%
%ADD11C,0.300000*%
%ADD12C,0.150000*%
%ADD13C,0.452400*%
G36*
X487331Y112080D02*
X487034Y112020D01*
X477402Y112020D01*
X477116Y112076D01*
X476864Y112243D01*
X473840Y115267D01*
X473682Y115498D01*
X473617Y115794D01*
X473672Y116092D01*
X473840Y116345D01*
X476032Y118537D01*
X476032Y120360D01*
X476088Y120646D01*
X476255Y120898D01*
X530352Y174995D01*
X530593Y175158D01*
X530890Y175218D01*
X532713Y175218D01*
X534782Y177287D01*
X534782Y180213D01*
X532713Y182282D01*
X529787Y182282D01*
X527718Y180213D01*
X527718Y178390D01*
X527662Y178104D01*
X527495Y177852D01*
X473398Y123755D01*
X473157Y123592D01*
X472860Y123532D01*
X471037Y123532D01*
X468845Y121340D01*
X468614Y121182D01*
X468318Y121117D01*
X468020Y121172D01*
X467767Y121340D01*
X405005Y184102D01*
X404842Y184343D01*
X404782Y184640D01*
X404782Y186463D01*
X404066Y187179D01*
X403913Y187399D01*
X403843Y187694D01*
X403894Y187993D01*
X404057Y188248D01*
X404307Y188420D01*
X404605Y188480D01*
X549897Y188480D01*
X558424Y197007D01*
X558666Y197170D01*
X558963Y197230D01*
X603537Y197230D01*
X603823Y197174D01*
X604076Y197007D01*
X622495Y178588D01*
X622658Y178346D01*
X622718Y178049D01*
X622718Y177287D01*
X624787Y175218D01*
X627713Y175218D01*
X629782Y177287D01*
X629782Y180213D01*
X627713Y182282D01*
X626951Y182282D01*
X626665Y182338D01*
X626412Y182505D01*
X606147Y202770D01*
X556353Y202770D01*
X547826Y194243D01*
X547584Y194080D01*
X547287Y194020D01*
X386032Y194020D01*
X385757Y194071D01*
X385502Y194235D01*
X385330Y194485D01*
X385270Y194782D01*
X385270Y274897D01*
X382993Y277174D01*
X382830Y277416D01*
X382770Y277713D01*
X382770Y385395D01*
X382817Y385659D01*
X382976Y385917D01*
X383224Y386092D01*
X383520Y386157D01*
X383818Y386102D01*
X384071Y385934D01*
X384787Y385218D01*
X387713Y385218D01*
X389002Y386507D01*
X389243Y386670D01*
X389541Y386730D01*
X437395Y386730D01*
X437659Y386683D01*
X437917Y386524D01*
X438092Y386276D01*
X438157Y385980D01*
X438102Y385682D01*
X437934Y385429D01*
X436468Y383963D01*
X436468Y381037D01*
X438537Y378968D01*
X441463Y378968D01*
X442752Y380257D01*
X442993Y380420D01*
X443291Y380480D01*
X792598Y380480D01*
X792884Y380424D01*
X793136Y380257D01*
X931245Y242148D01*
X931408Y241907D01*
X931468Y241610D01*
X931468Y239787D01*
X931684Y239571D01*
X931837Y239351D01*
X931907Y239056D01*
X931856Y238757D01*
X931693Y238502D01*
X931443Y238330D01*
X931145Y238270D01*
X927402Y238270D01*
X927116Y238326D01*
X926864Y238493D01*
X920993Y244364D01*
X920830Y244605D01*
X920770Y244902D01*
X920770Y245837D01*
X915837Y250770D01*
X819902Y250770D01*
X819616Y250826D01*
X819364Y250993D01*
X805837Y264520D01*
X777913Y264520D01*
X639733Y126340D01*
X639503Y126182D01*
X639206Y126117D01*
X638908Y126172D01*
X638655Y126340D01*
X636463Y128532D01*
X634640Y128532D01*
X634354Y128588D01*
X634102Y128755D01*
X627590Y135267D01*
X627432Y135498D01*
X627367Y135794D01*
X627422Y136092D01*
X627590Y136345D01*
X628836Y137591D01*
X629067Y137749D01*
X629363Y137814D01*
X629661Y137759D01*
X629914Y137591D01*
X631037Y136468D01*
X633963Y136468D01*
X636032Y138537D01*
X636032Y141463D01*
X635993Y141502D01*
X635830Y141743D01*
X635770Y142041D01*
X635770Y232959D01*
X635826Y233245D01*
X635993Y233498D01*
X636032Y233537D01*
X636032Y236463D01*
X633963Y238532D01*
X631037Y238532D01*
X628968Y236463D01*
X628968Y233537D01*
X631053Y231452D01*
X631243Y231417D01*
X631498Y231253D01*
X631670Y231003D01*
X631730Y230706D01*
X631730Y144294D01*
X631679Y144019D01*
X631515Y143764D01*
X631265Y143592D01*
X631055Y143550D01*
X629914Y142409D01*
X629683Y142251D01*
X629387Y142186D01*
X629089Y142241D01*
X628836Y142409D01*
X627713Y143532D01*
X625890Y143532D01*
X625604Y143588D01*
X625352Y143755D01*
X583337Y185770D01*
X546663Y185770D01*
X482980Y122087D01*
X482980Y117913D01*
X487572Y113321D01*
X487725Y113101D01*
X487795Y112806D01*
X487744Y112507D01*
X487581Y112252D01*
X487331Y112080D01*
G37*
%LPC*%
G36*
X639787Y156468D02*
X642713Y156468D01*
X644782Y158537D01*
X644782Y161463D01*
X643493Y162752D01*
X643330Y162993D01*
X643270Y163291D01*
X643270Y261709D01*
X643326Y261995D01*
X643493Y262248D01*
X644782Y263537D01*
X644782Y266463D01*
X642713Y268532D01*
X639787Y268532D01*
X637718Y266463D01*
X637718Y263537D01*
X639007Y262248D01*
X639170Y262007D01*
X639230Y261709D01*
X639230Y163291D01*
X639174Y163005D01*
X639007Y162752D01*
X637718Y161463D01*
X637718Y158537D01*
X639787Y156468D01*
G37*
%LPD*%
G36*
X262808Y134488D02*
X262512Y134422D01*
X262214Y134478D01*
X261961Y134646D01*
X251255Y145352D01*
X251092Y145593D01*
X251032Y145890D01*
X251032Y147713D01*
X248963Y149782D01*
X246037Y149782D01*
X243845Y147590D01*
X243614Y147432D01*
X243318Y147367D01*
X243020Y147422D01*
X242767Y147590D01*
X207243Y183114D01*
X207080Y183355D01*
X207020Y183652D01*
X207020Y256348D01*
X207076Y256634D01*
X207243Y256886D01*
X215352Y264995D01*
X215593Y265158D01*
X215890Y265218D01*
X217713Y265218D01*
X219782Y267287D01*
X219782Y270213D01*
X217713Y272282D01*
X214787Y272282D01*
X212718Y270213D01*
X212718Y268390D01*
X212662Y268104D01*
X212495Y267852D01*
X204571Y259928D01*
X204351Y259775D01*
X204056Y259705D01*
X203757Y259756D01*
X203502Y259919D01*
X203330Y260169D01*
X203270Y260466D01*
X203270Y276145D01*
X203317Y276409D01*
X203476Y276667D01*
X203724Y276842D01*
X204020Y276907D01*
X204318Y276852D01*
X204571Y276684D01*
X204787Y276468D01*
X206610Y276468D01*
X206896Y276412D01*
X207148Y276245D01*
X207913Y275480D01*
X249587Y275480D01*
X255614Y281507D01*
X255855Y281670D01*
X256152Y281730D01*
X343848Y281730D01*
X344134Y281674D01*
X344386Y281507D01*
X351160Y274733D01*
X351318Y274503D01*
X351383Y274206D01*
X351328Y273908D01*
X351160Y273655D01*
X348968Y271463D01*
X348968Y268537D01*
X350257Y267248D01*
X350420Y267007D01*
X350480Y266709D01*
X350480Y258652D01*
X350424Y258366D01*
X350257Y258114D01*
X306730Y214587D01*
X306730Y183855D01*
X306683Y183591D01*
X306524Y183333D01*
X306276Y183158D01*
X305980Y183093D01*
X305682Y183148D01*
X305429Y183316D01*
X305213Y183532D01*
X302287Y183532D01*
X300998Y182243D01*
X300757Y182080D01*
X300459Y182020D01*
X297402Y182020D01*
X297116Y182076D01*
X296864Y182243D01*
X235005Y244102D01*
X234842Y244343D01*
X234782Y244640D01*
X234782Y246463D01*
X232713Y248532D01*
X229787Y248532D01*
X227718Y246463D01*
X227718Y243537D01*
X229787Y241468D01*
X231610Y241468D01*
X231896Y241412D01*
X232148Y241245D01*
X295413Y177980D01*
X300459Y177980D01*
X300745Y177924D01*
X300998Y177757D01*
X302287Y176468D01*
X303022Y176468D01*
X303285Y176421D01*
X303543Y176262D01*
X303718Y176014D01*
X303784Y175718D01*
X303728Y175420D01*
X303560Y175167D01*
X263039Y134646D01*
X262808Y134488D01*
G37*
%LPC*%
G36*
X248537Y265218D02*
X251463Y265218D01*
X252752Y266507D01*
X252993Y266670D01*
X253291Y266730D01*
X296709Y266730D01*
X296995Y266674D01*
X297248Y266507D01*
X298537Y265218D01*
X301463Y265218D01*
X303532Y267287D01*
X303532Y270213D01*
X301463Y272282D01*
X298537Y272282D01*
X297248Y270993D01*
X297007Y270830D01*
X296709Y270770D01*
X253291Y270770D01*
X253005Y270826D01*
X252752Y270993D01*
X251463Y272282D01*
X248537Y272282D01*
X246468Y270213D01*
X246468Y267287D01*
X248537Y265218D01*
G37*
%LPD*%
G36*
X667773Y-428894D02*
X667476Y-428954D01*
X133524Y-428954D01*
X133249Y-428903D01*
X132994Y-428739D01*
X132822Y-428489D01*
X132762Y-428192D01*
X132762Y75476D01*
X132813Y75751D01*
X132977Y76006D01*
X133227Y76178D01*
X133524Y76238D01*
X198144Y76238D01*
X199762Y77856D01*
X199762Y178042D01*
X199809Y178305D01*
X199968Y178563D01*
X200216Y178738D01*
X200512Y178804D01*
X200810Y178748D01*
X201063Y178580D01*
X234007Y145636D01*
X234170Y145395D01*
X234230Y145098D01*
X234230Y103291D01*
X234174Y103005D01*
X234007Y102752D01*
X232718Y101463D01*
X232718Y98537D01*
X234787Y96468D01*
X237713Y96468D01*
X239782Y98537D01*
X239782Y101463D01*
X238493Y102752D01*
X238330Y102993D01*
X238270Y103291D01*
X238270Y144534D01*
X238317Y144797D01*
X238476Y145055D01*
X238724Y145230D01*
X239020Y145296D01*
X239318Y145240D01*
X239571Y145072D01*
X247757Y136886D01*
X247920Y136645D01*
X247980Y136348D01*
X247980Y98291D01*
X247924Y98005D01*
X247757Y97752D01*
X246468Y96463D01*
X246468Y93537D01*
X248537Y91468D01*
X251463Y91468D01*
X253532Y93537D01*
X253532Y96463D01*
X252243Y97752D01*
X252080Y97993D01*
X252020Y98291D01*
X252020Y137034D01*
X252067Y137297D01*
X252226Y137555D01*
X252474Y137730D01*
X252770Y137796D01*
X253068Y137740D01*
X253321Y137572D01*
X271245Y119648D01*
X271408Y119407D01*
X271468Y119110D01*
X271468Y117287D01*
X272757Y115998D01*
X272920Y115757D01*
X272980Y115459D01*
X272980Y100413D01*
X282757Y90636D01*
X282920Y90395D01*
X282980Y90098D01*
X282980Y-95459D01*
X282924Y-95745D01*
X282757Y-95998D01*
X281468Y-97287D01*
X281468Y-99272D01*
X281421Y-99535D01*
X281262Y-99793D01*
X281014Y-99968D01*
X280718Y-100034D01*
X280420Y-99978D01*
X280167Y-99810D01*
X270993Y-90636D01*
X270830Y-90395D01*
X270770Y-90098D01*
X270770Y66709D01*
X270826Y66995D01*
X270993Y67248D01*
X271336Y67591D01*
X271567Y67749D01*
X271863Y67814D01*
X272161Y67759D01*
X272414Y67591D01*
X273537Y66468D01*
X276463Y66468D01*
X278532Y68537D01*
X278532Y71463D01*
X276463Y73532D01*
X275890Y73532D01*
X275604Y73588D01*
X275352Y73755D01*
X268337Y80770D01*
X246663Y80770D01*
X207980Y42087D01*
X207980Y-85098D01*
X207924Y-85384D01*
X207757Y-85636D01*
X197148Y-96245D01*
X196907Y-96408D01*
X196610Y-96468D01*
X194787Y-96468D01*
X192718Y-98537D01*
X192718Y-101463D01*
X194787Y-103532D01*
X197713Y-103532D01*
X199782Y-101463D01*
X199782Y-99640D01*
X199838Y-99354D01*
X200005Y-99102D01*
X206679Y-92428D01*
X206899Y-92275D01*
X207194Y-92205D01*
X207493Y-92256D01*
X207748Y-92419D01*
X207920Y-92669D01*
X207980Y-92966D01*
X207980Y-137087D01*
X215413Y-144520D01*
X216348Y-144520D01*
X216634Y-144576D01*
X216886Y-144743D01*
X311663Y-239520D01*
X381348Y-239520D01*
X381634Y-239576D01*
X381886Y-239743D01*
X383745Y-241602D01*
X383908Y-241843D01*
X383968Y-242140D01*
X383968Y-243963D01*
X386037Y-246032D01*
X388963Y-246032D01*
X391032Y-243963D01*
X391032Y-241037D01*
X388963Y-238968D01*
X387140Y-238968D01*
X386854Y-238912D01*
X386602Y-238745D01*
X383337Y-235480D01*
X313652Y-235480D01*
X313366Y-235424D01*
X313114Y-235257D01*
X218337Y-140480D01*
X217402Y-140480D01*
X217116Y-140424D01*
X216864Y-140257D01*
X212243Y-135636D01*
X212080Y-135395D01*
X212020Y-135098D01*
X212020Y40098D01*
X212076Y40384D01*
X212243Y40636D01*
X248114Y76507D01*
X248355Y76670D01*
X248652Y76730D01*
X266348Y76730D01*
X266634Y76674D01*
X266886Y76507D01*
X268560Y74833D01*
X268713Y74613D01*
X268783Y74318D01*
X268732Y74019D01*
X268569Y73764D01*
X268319Y73592D01*
X268022Y73532D01*
X267287Y73532D01*
X265218Y71463D01*
X265218Y68537D01*
X266507Y67248D01*
X266670Y67007D01*
X266730Y66709D01*
X266730Y-92087D01*
X282913Y-108270D01*
X283848Y-108270D01*
X284134Y-108326D01*
X284386Y-108493D01*
X399910Y-224017D01*
X400068Y-224248D01*
X400133Y-224544D01*
X400078Y-224842D01*
X399910Y-225095D01*
X397702Y-227303D01*
X397667Y-227493D01*
X397503Y-227748D01*
X397253Y-227920D01*
X396956Y-227980D01*
X316152Y-227980D01*
X315866Y-227924D01*
X315614Y-227757D01*
X222505Y-134648D01*
X222342Y-134407D01*
X222282Y-134110D01*
X222282Y-132287D01*
X220213Y-130218D01*
X217287Y-130218D01*
X215218Y-132287D01*
X215218Y-135213D01*
X217287Y-137282D01*
X219110Y-137282D01*
X219396Y-137338D01*
X219648Y-137505D01*
X314163Y-232020D01*
X399209Y-232020D01*
X399495Y-232076D01*
X399748Y-232243D01*
X399787Y-232282D01*
X402713Y-232282D01*
X404905Y-230090D01*
X405136Y-229932D01*
X405432Y-229867D01*
X405730Y-229922D01*
X405983Y-230090D01*
X469163Y-293270D01*
X508337Y-293270D01*
X510614Y-290993D01*
X510855Y-290830D01*
X511152Y-290770D01*
X756348Y-290770D01*
X756634Y-290826D01*
X756886Y-290993D01*
X761663Y-295770D01*
X761709Y-295770D01*
X761995Y-295826D01*
X762248Y-295993D01*
X763537Y-297282D01*
X766463Y-297282D01*
X768532Y-295213D01*
X768532Y-292287D01*
X766463Y-290218D01*
X763537Y-290218D01*
X763220Y-290535D01*
X762989Y-290693D01*
X762693Y-290758D01*
X762395Y-290703D01*
X762142Y-290535D01*
X758337Y-286730D01*
X509163Y-286730D01*
X506886Y-289007D01*
X506645Y-289170D01*
X506348Y-289230D01*
X471152Y-289230D01*
X470866Y-289174D01*
X470614Y-289007D01*
X460090Y-278483D01*
X459932Y-278253D01*
X459867Y-277956D01*
X459922Y-277658D01*
X460090Y-277405D01*
X462282Y-275213D01*
X462282Y-272287D01*
X460213Y-270218D01*
X458390Y-270218D01*
X458104Y-270162D01*
X457852Y-269995D01*
X407505Y-219648D01*
X407342Y-219407D01*
X407282Y-219110D01*
X407282Y-217287D01*
X405213Y-215218D01*
X403390Y-215218D01*
X403104Y-215162D01*
X402852Y-214995D01*
X355005Y-167148D01*
X354842Y-166907D01*
X354782Y-166610D01*
X354782Y-164787D01*
X352713Y-162718D01*
X349787Y-162718D01*
X347595Y-164910D01*
X347364Y-165068D01*
X347068Y-165133D01*
X346770Y-165078D01*
X346517Y-164910D01*
X322690Y-141083D01*
X322537Y-140863D01*
X322467Y-140568D01*
X322518Y-140269D01*
X322681Y-140014D01*
X322931Y-139842D01*
X323228Y-139782D01*
X325213Y-139782D01*
X326502Y-138493D01*
X326743Y-138330D01*
X327041Y-138270D01*
X365098Y-138270D01*
X365384Y-138326D01*
X365636Y-138493D01*
X493745Y-266602D01*
X493908Y-266843D01*
X493968Y-267140D01*
X493968Y-268963D01*
X496037Y-271032D01*
X497860Y-271032D01*
X498146Y-271088D01*
X498398Y-271255D01*
X506663Y-279520D01*
X754587Y-279520D01*
X755614Y-278493D01*
X755855Y-278330D01*
X756152Y-278270D01*
X756709Y-278270D01*
X756995Y-278326D01*
X757248Y-278493D01*
X758537Y-279782D01*
X761463Y-279782D01*
X763532Y-277713D01*
X763532Y-274787D01*
X762066Y-273321D01*
X761913Y-273101D01*
X761843Y-272806D01*
X761894Y-272507D01*
X762057Y-272252D01*
X762307Y-272080D01*
X762605Y-272020D01*
X766709Y-272020D01*
X766995Y-272076D01*
X767248Y-272243D01*
X768537Y-273532D01*
X771463Y-273532D01*
X773532Y-271463D01*
X773532Y-268537D01*
X771463Y-266468D01*
X768537Y-266468D01*
X767248Y-267757D01*
X767007Y-267920D01*
X766709Y-267980D01*
X761152Y-267980D01*
X760866Y-267924D01*
X760614Y-267757D01*
X756965Y-264108D01*
X756807Y-263878D01*
X756742Y-263581D01*
X756797Y-263283D01*
X756965Y-263030D01*
X757282Y-262713D01*
X757282Y-259787D01*
X757066Y-259571D01*
X756913Y-259351D01*
X756843Y-259056D01*
X756894Y-258757D01*
X757057Y-258502D01*
X757307Y-258330D01*
X757605Y-258270D01*
X805837Y-258270D01*
X839102Y-225005D01*
X839343Y-224842D01*
X839640Y-224782D01*
X841463Y-224782D01*
X843532Y-222713D01*
X843532Y-219787D01*
X841463Y-217718D01*
X838537Y-217718D01*
X836468Y-219787D01*
X836468Y-221610D01*
X836412Y-221896D01*
X836245Y-222148D01*
X804386Y-254007D01*
X804145Y-254170D01*
X803848Y-254230D01*
X713291Y-254230D01*
X713005Y-254174D01*
X712752Y-254007D01*
X711463Y-252718D01*
X708537Y-252718D01*
X706468Y-254787D01*
X706468Y-257713D01*
X706684Y-257929D01*
X706837Y-258149D01*
X706907Y-258444D01*
X706856Y-258743D01*
X706693Y-258998D01*
X706443Y-259170D01*
X706145Y-259230D01*
X699902Y-259230D01*
X699616Y-259174D01*
X699364Y-259007D01*
X625837Y-185480D01*
X624032Y-185480D01*
X623757Y-185429D01*
X623502Y-185265D01*
X623330Y-185015D01*
X623270Y-184718D01*
X623270Y-67605D01*
X623317Y-67341D01*
X623476Y-67083D01*
X623724Y-66908D01*
X624020Y-66843D01*
X624318Y-66898D01*
X624571Y-67066D01*
X624787Y-67282D01*
X627713Y-67282D01*
X629002Y-65993D01*
X629243Y-65830D01*
X629541Y-65770D01*
X743468Y-65770D01*
X743743Y-65821D01*
X743998Y-65985D01*
X744170Y-66235D01*
X744230Y-66532D01*
X744230Y-72087D01*
X849007Y-176864D01*
X849170Y-177105D01*
X849230Y-177402D01*
X849230Y-223848D01*
X849174Y-224134D01*
X849007Y-224386D01*
X817148Y-256245D01*
X816907Y-256408D01*
X816610Y-256468D01*
X814787Y-256468D01*
X812718Y-258537D01*
X812718Y-261463D01*
X814910Y-263655D01*
X815068Y-263886D01*
X815133Y-264182D01*
X815078Y-264480D01*
X814910Y-264733D01*
X812148Y-267495D01*
X811907Y-267658D01*
X811610Y-267718D01*
X809787Y-267718D01*
X807718Y-269787D01*
X807718Y-272713D01*
X807934Y-272929D01*
X808087Y-273149D01*
X808157Y-273444D01*
X808106Y-273743D01*
X807943Y-273998D01*
X807693Y-274170D01*
X807395Y-274230D01*
X804541Y-274230D01*
X804255Y-274174D01*
X804002Y-274007D01*
X802713Y-272718D01*
X799787Y-272718D01*
X797718Y-274787D01*
X797718Y-277713D01*
X799787Y-279782D01*
X802713Y-279782D01*
X804002Y-278493D01*
X804243Y-278330D01*
X804541Y-278270D01*
X818337Y-278270D01*
X882667Y-213940D01*
X882887Y-213787D01*
X883182Y-213717D01*
X883481Y-213768D01*
X883736Y-213931D01*
X883908Y-214181D01*
X883968Y-214478D01*
X883968Y-216610D01*
X883912Y-216896D01*
X883745Y-217148D01*
X799386Y-301507D01*
X799145Y-301670D01*
X798848Y-301730D01*
X724541Y-301730D01*
X724255Y-301674D01*
X724002Y-301507D01*
X722713Y-300218D01*
X719787Y-300218D01*
X717718Y-302287D01*
X717718Y-305213D01*
X719787Y-307282D01*
X722713Y-307282D01*
X724002Y-305993D01*
X724243Y-305830D01*
X724541Y-305770D01*
X800837Y-305770D01*
X805267Y-301340D01*
X805498Y-301182D01*
X805794Y-301117D01*
X806092Y-301172D01*
X806345Y-301340D01*
X808537Y-303532D01*
X811463Y-303532D01*
X813532Y-301463D01*
X813532Y-299640D01*
X813588Y-299354D01*
X813755Y-299102D01*
X913270Y-199587D01*
X913270Y93337D01*
X790005Y216602D01*
X789842Y216843D01*
X789782Y217140D01*
X789782Y218963D01*
X787590Y221155D01*
X787432Y221386D01*
X787367Y221682D01*
X787422Y221980D01*
X787590Y222233D01*
X805770Y240413D01*
X805770Y247959D01*
X805826Y248245D01*
X805993Y248498D01*
X807405Y249910D01*
X807636Y250068D01*
X807932Y250133D01*
X808230Y250078D01*
X808483Y249910D01*
X991245Y67148D01*
X991408Y66907D01*
X991468Y66610D01*
X991468Y64787D01*
X993537Y62718D01*
X996463Y62718D01*
X998532Y64787D01*
X998532Y67713D01*
X996463Y69782D01*
X994640Y69782D01*
X994354Y69838D01*
X994102Y70005D01*
X818678Y245429D01*
X818525Y245649D01*
X818455Y245944D01*
X818506Y246243D01*
X818669Y246498D01*
X818919Y246670D01*
X819216Y246730D01*
X913848Y246730D01*
X914134Y246674D01*
X914386Y246507D01*
X916507Y244386D01*
X916670Y244145D01*
X916730Y243848D01*
X916730Y242913D01*
X925413Y234230D01*
X1553848Y234230D01*
X1554134Y234174D01*
X1554386Y234007D01*
X1624995Y163398D01*
X1625158Y163157D01*
X1625218Y162860D01*
X1625218Y161037D01*
X1627287Y158968D01*
X1630213Y158968D01*
X1632282Y161037D01*
X1632282Y163963D01*
X1630213Y166032D01*
X1628390Y166032D01*
X1628104Y166088D01*
X1627852Y166255D01*
X1558170Y235937D01*
X1558017Y236157D01*
X1557947Y236452D01*
X1557998Y236751D01*
X1558161Y237006D01*
X1558411Y237178D01*
X1558708Y237238D01*
X1817476Y237238D01*
X1817751Y237187D01*
X1818006Y237023D01*
X1818178Y236773D01*
X1818238Y236476D01*
X1818238Y-96144D01*
X1819015Y-96921D01*
X1819178Y-97162D01*
X1819238Y-97460D01*
X1819238Y-428192D01*
X1819187Y-428467D01*
X1819023Y-428722D01*
X1818773Y-428894D01*
X1818476Y-428954D01*
X856524Y-428954D01*
X856249Y-428903D01*
X855994Y-428739D01*
X855822Y-428489D01*
X855762Y-428192D01*
X855762Y-331856D01*
X854144Y-330238D01*
X669856Y-330238D01*
X668238Y-331856D01*
X668238Y-428192D01*
X668187Y-428467D01*
X668023Y-428722D01*
X667773Y-428894D01*
G37*
%LPC*%
G36*
X939787Y190218D02*
X942713Y190218D01*
X944782Y192287D01*
X944782Y195213D01*
X942713Y197282D01*
X940890Y197282D01*
X940604Y197338D01*
X940352Y197505D01*
X907505Y230352D01*
X907342Y230593D01*
X907282Y230890D01*
X907282Y232713D01*
X905213Y234782D01*
X902287Y234782D01*
X900218Y232713D01*
X900218Y229787D01*
X902287Y227718D01*
X904110Y227718D01*
X904396Y227662D01*
X904648Y227495D01*
X937495Y194648D01*
X937658Y194407D01*
X937718Y194110D01*
X937718Y192287D01*
X939787Y190218D01*
G37*
G36*
X1728537Y110218D02*
X1731463Y110218D01*
X1733532Y112287D01*
X1733532Y115213D01*
X1731463Y117282D01*
X1729640Y117282D01*
X1729354Y117338D01*
X1729102Y117505D01*
X1727690Y118917D01*
X1727537Y119137D01*
X1727467Y119432D01*
X1727518Y119731D01*
X1727681Y119986D01*
X1727931Y120158D01*
X1728228Y120218D01*
X1731463Y120218D01*
X1733532Y122287D01*
X1733532Y125213D01*
X1733316Y125429D01*
X1733163Y125649D01*
X1733093Y125944D01*
X1733144Y126243D01*
X1733307Y126498D01*
X1733557Y126670D01*
X1733855Y126730D01*
X1736348Y126730D01*
X1736634Y126674D01*
X1736886Y126507D01*
X1747495Y115898D01*
X1747658Y115657D01*
X1747718Y115360D01*
X1747718Y113537D01*
X1749787Y111468D01*
X1752713Y111468D01*
X1754782Y113537D01*
X1754782Y116463D01*
X1752713Y118532D01*
X1750890Y118532D01*
X1750604Y118588D01*
X1750352Y118755D01*
X1738337Y130770D01*
X1731152Y130770D01*
X1730866Y130826D01*
X1730614Y130993D01*
X1697087Y164520D01*
X1688291Y164520D01*
X1688005Y164576D01*
X1687752Y164743D01*
X1686463Y166032D01*
X1683537Y166032D01*
X1681468Y163963D01*
X1681468Y161037D01*
X1683537Y158968D01*
X1686463Y158968D01*
X1687752Y160257D01*
X1687993Y160420D01*
X1688291Y160480D01*
X1695098Y160480D01*
X1695384Y160424D01*
X1695636Y160257D01*
X1712572Y143321D01*
X1712725Y143101D01*
X1712795Y142806D01*
X1712744Y142507D01*
X1712581Y142252D01*
X1712331Y142080D01*
X1712034Y142020D01*
X1707402Y142020D01*
X1707116Y142076D01*
X1706864Y142243D01*
X1706255Y142852D01*
X1706092Y143093D01*
X1706032Y143390D01*
X1706032Y145213D01*
X1703963Y147282D01*
X1701037Y147282D01*
X1698968Y145213D01*
X1698968Y142287D01*
X1701037Y140218D01*
X1702860Y140218D01*
X1703146Y140162D01*
X1703398Y139995D01*
X1703822Y139571D01*
X1703975Y139351D01*
X1704045Y139056D01*
X1703994Y138757D01*
X1703831Y138502D01*
X1703581Y138330D01*
X1703284Y138270D01*
X1678291Y138270D01*
X1678005Y138326D01*
X1677752Y138493D01*
X1676463Y139782D01*
X1673537Y139782D01*
X1671468Y137713D01*
X1671468Y134787D01*
X1673537Y132718D01*
X1676463Y132718D01*
X1677752Y134007D01*
X1677993Y134170D01*
X1678291Y134230D01*
X1711348Y134230D01*
X1711634Y134174D01*
X1711886Y134007D01*
X1722757Y123136D01*
X1722920Y122895D01*
X1722980Y122598D01*
X1722980Y117913D01*
X1726245Y114648D01*
X1726408Y114407D01*
X1726468Y114110D01*
X1726468Y112287D01*
X1728537Y110218D01*
G37*
G36*
X947287Y141468D02*
X950213Y141468D01*
X952282Y143537D01*
X952282Y145360D01*
X952338Y145646D01*
X952505Y145898D01*
X965352Y158745D01*
X965593Y158908D01*
X965890Y158968D01*
X967713Y158968D01*
X969782Y161037D01*
X969782Y163963D01*
X967713Y166032D01*
X964787Y166032D01*
X962718Y163963D01*
X962718Y162140D01*
X962662Y161854D01*
X962495Y161602D01*
X949648Y148755D01*
X949407Y148592D01*
X949110Y148532D01*
X947287Y148532D01*
X945218Y146463D01*
X945218Y143537D01*
X947287Y141468D01*
G37*
G36*
X1748695Y131250D02*
X1753045Y131250D01*
X1756120Y134325D01*
X1756120Y138675D01*
X1753045Y141750D01*
X1748695Y141750D01*
X1745620Y138675D01*
X1745620Y134325D01*
X1748695Y131250D01*
G37*
G36*
X1682287Y-336032D02*
X1685213Y-336032D01*
X1687282Y-333963D01*
X1687282Y-331037D01*
X1685993Y-329748D01*
X1685830Y-329507D01*
X1685770Y-329209D01*
X1685770Y-282913D01*
X1647087Y-244230D01*
X1638291Y-244230D01*
X1638005Y-244174D01*
X1637752Y-244007D01*
X1637713Y-243968D01*
X1635890Y-243968D01*
X1635604Y-243912D01*
X1635352Y-243745D01*
X1541255Y-149648D01*
X1541092Y-149407D01*
X1541032Y-149110D01*
X1541032Y-147287D01*
X1538963Y-145218D01*
X1536037Y-145218D01*
X1534748Y-146507D01*
X1534507Y-146670D01*
X1534209Y-146730D01*
X1297402Y-146730D01*
X1297116Y-146674D01*
X1296864Y-146507D01*
X1014587Y135770D01*
X987041Y135770D01*
X986755Y135826D01*
X986502Y135993D01*
X985213Y137282D01*
X982287Y137282D01*
X980218Y135213D01*
X980218Y132287D01*
X982287Y130218D01*
X985213Y130218D01*
X986502Y131507D01*
X986743Y131670D01*
X987041Y131730D01*
X1012598Y131730D01*
X1012884Y131674D01*
X1013136Y131507D01*
X1025072Y119571D01*
X1025225Y119351D01*
X1025295Y119056D01*
X1025244Y118757D01*
X1025081Y118502D01*
X1024831Y118330D01*
X1024534Y118270D01*
X989541Y118270D01*
X989255Y118326D01*
X989002Y118493D01*
X987713Y119782D01*
X984787Y119782D01*
X982718Y117713D01*
X982718Y114787D01*
X984787Y112718D01*
X987713Y112718D01*
X989002Y114007D01*
X989243Y114170D01*
X989541Y114230D01*
X1025098Y114230D01*
X1025384Y114174D01*
X1025636Y114007D01*
X1101160Y38483D01*
X1101318Y38253D01*
X1101383Y37956D01*
X1101328Y37658D01*
X1101160Y37405D01*
X1099748Y35993D01*
X1099507Y35830D01*
X1099209Y35770D01*
X980791Y35770D01*
X980505Y35826D01*
X980252Y35993D01*
X978963Y37282D01*
X976037Y37282D01*
X973968Y35213D01*
X973968Y32287D01*
X976037Y30218D01*
X978963Y30218D01*
X980252Y31507D01*
X980493Y31670D01*
X980791Y31730D01*
X1099209Y31730D01*
X1099495Y31674D01*
X1099748Y31507D01*
X1101037Y30218D01*
X1103963Y30218D01*
X1106155Y32410D01*
X1106386Y32568D01*
X1106682Y32633D01*
X1106980Y32578D01*
X1107233Y32410D01*
X1299995Y-160352D01*
X1300158Y-160593D01*
X1300218Y-160890D01*
X1300218Y-162713D01*
X1302287Y-164782D01*
X1305213Y-164782D01*
X1307282Y-162713D01*
X1307282Y-159787D01*
X1305213Y-157718D01*
X1303390Y-157718D01*
X1303104Y-157662D01*
X1302852Y-157495D01*
X1297428Y-152071D01*
X1297275Y-151851D01*
X1297205Y-151556D01*
X1297256Y-151257D01*
X1297419Y-151002D01*
X1297669Y-150830D01*
X1297966Y-150770D01*
X1534209Y-150770D01*
X1534495Y-150826D01*
X1534748Y-150993D01*
X1536037Y-152282D01*
X1537860Y-152282D01*
X1538146Y-152338D01*
X1538398Y-152505D01*
X1628560Y-242667D01*
X1628713Y-242887D01*
X1628783Y-243182D01*
X1628732Y-243481D01*
X1628569Y-243736D01*
X1628319Y-243908D01*
X1628022Y-243968D01*
X1627287Y-243968D01*
X1625218Y-246037D01*
X1625218Y-248963D01*
X1627287Y-251032D01*
X1628049Y-251032D01*
X1628335Y-251088D01*
X1628588Y-251255D01*
X1633853Y-256520D01*
X1638647Y-256520D01*
X1640924Y-254243D01*
X1641166Y-254080D01*
X1641463Y-254020D01*
X1642459Y-254020D01*
X1642745Y-254076D01*
X1642998Y-254243D01*
X1643537Y-254782D01*
X1646463Y-254782D01*
X1648655Y-252590D01*
X1648886Y-252432D01*
X1649182Y-252367D01*
X1649480Y-252422D01*
X1649733Y-252590D01*
X1681507Y-284364D01*
X1681670Y-284605D01*
X1681730Y-284902D01*
X1681730Y-329209D01*
X1681674Y-329495D01*
X1681507Y-329748D01*
X1680218Y-331037D01*
X1680218Y-333963D01*
X1682287Y-336032D01*
G37*
G36*
X1708433Y59218D02*
X1711567Y59218D01*
X1712355Y60007D01*
X1712597Y60170D01*
X1712894Y60230D01*
X1726771Y60230D01*
X1744319Y77778D01*
X1744539Y77931D01*
X1744834Y78001D01*
X1745133Y77950D01*
X1745388Y77786D01*
X1745560Y77536D01*
X1745620Y77239D01*
X1745620Y76525D01*
X1748695Y73450D01*
X1753045Y73450D01*
X1756120Y76525D01*
X1756120Y80875D01*
X1753495Y83500D01*
X1753337Y83730D01*
X1753272Y84026D01*
X1753327Y84325D01*
X1753495Y84577D01*
X1759912Y90995D01*
X1760154Y91158D01*
X1760451Y91218D01*
X1760567Y91218D01*
X1762782Y93433D01*
X1762782Y96567D01*
X1760567Y98782D01*
X1757433Y98782D01*
X1755218Y96567D01*
X1755218Y94451D01*
X1755162Y94165D01*
X1754995Y93912D01*
X1749526Y88443D01*
X1749284Y88280D01*
X1748987Y88220D01*
X1746927Y88220D01*
X1724700Y65993D01*
X1724458Y65830D01*
X1724161Y65770D01*
X1712894Y65770D01*
X1712608Y65826D01*
X1712355Y65993D01*
X1711567Y66782D01*
X1708433Y66782D01*
X1706218Y64567D01*
X1706218Y61433D01*
X1708433Y59218D01*
G37*
G36*
X1716037Y83968D02*
X1718963Y83968D01*
X1720252Y85257D01*
X1720493Y85420D01*
X1720791Y85480D01*
X1724587Y85480D01*
X1729102Y89995D01*
X1729343Y90158D01*
X1729640Y90218D01*
X1731463Y90218D01*
X1733532Y92287D01*
X1733532Y95213D01*
X1731463Y97282D01*
X1728537Y97282D01*
X1726468Y95213D01*
X1726468Y93390D01*
X1726412Y93104D01*
X1726245Y92852D01*
X1723136Y89743D01*
X1722895Y89580D01*
X1722598Y89520D01*
X1720791Y89520D01*
X1720505Y89576D01*
X1720252Y89743D01*
X1718963Y91032D01*
X1716037Y91032D01*
X1713968Y88963D01*
X1713968Y86037D01*
X1716037Y83968D01*
G37*
G36*
X1503537Y-21032D02*
X1506463Y-21032D01*
X1508532Y-18963D01*
X1508532Y-16037D01*
X1506463Y-13968D01*
X1504640Y-13968D01*
X1504354Y-13912D01*
X1504102Y-13745D01*
X1489587Y770D01*
X1484541Y770D01*
X1484255Y826D01*
X1484002Y993D01*
X1482713Y2282D01*
X1479787Y2282D01*
X1477718Y213D01*
X1477718Y-2713D01*
X1479787Y-4782D01*
X1482713Y-4782D01*
X1484002Y-3493D01*
X1484243Y-3330D01*
X1484541Y-3270D01*
X1487598Y-3270D01*
X1487884Y-3326D01*
X1488136Y-3493D01*
X1501245Y-16602D01*
X1501408Y-16843D01*
X1501468Y-17140D01*
X1501468Y-18963D01*
X1503537Y-21032D01*
G37*
G36*
X1341037Y-82282D02*
X1343963Y-82282D01*
X1346032Y-80213D01*
X1346032Y-78390D01*
X1346088Y-78104D01*
X1346255Y-77852D01*
X1354017Y-70090D01*
X1354248Y-69932D01*
X1354544Y-69867D01*
X1354842Y-69922D01*
X1355095Y-70090D01*
X1357287Y-72282D01*
X1360213Y-72282D01*
X1361502Y-70993D01*
X1361743Y-70830D01*
X1362041Y-70770D01*
X1379456Y-70770D01*
X1379731Y-70821D01*
X1379986Y-70985D01*
X1380158Y-71235D01*
X1380200Y-71445D01*
X1382287Y-73532D01*
X1385213Y-73532D01*
X1387282Y-71463D01*
X1387282Y-68537D01*
X1385213Y-66468D01*
X1382287Y-66468D01*
X1382248Y-66507D01*
X1382007Y-66670D01*
X1381709Y-66730D01*
X1362041Y-66730D01*
X1361755Y-66674D01*
X1361502Y-66507D01*
X1360090Y-65095D01*
X1359932Y-64864D01*
X1359867Y-64568D01*
X1359922Y-64270D01*
X1360090Y-64017D01*
X1379102Y-45005D01*
X1379343Y-44842D01*
X1379640Y-44782D01*
X1381463Y-44782D01*
X1383532Y-42713D01*
X1383532Y-39787D01*
X1381463Y-37718D01*
X1378537Y-37718D01*
X1376468Y-39787D01*
X1376468Y-41610D01*
X1376412Y-41896D01*
X1376245Y-42148D01*
X1343398Y-74995D01*
X1343157Y-75158D01*
X1342860Y-75218D01*
X1341037Y-75218D01*
X1338968Y-77287D01*
X1338968Y-80213D01*
X1341037Y-82282D01*
G37*
G36*
X746037Y-236032D02*
X748963Y-236032D01*
X751032Y-233963D01*
X751032Y-232140D01*
X751088Y-231854D01*
X751255Y-231602D01*
X799102Y-183755D01*
X799343Y-183592D01*
X799640Y-183532D01*
X801463Y-183532D01*
X803532Y-181463D01*
X803532Y-178537D01*
X801463Y-176468D01*
X798537Y-176468D01*
X796468Y-178537D01*
X796468Y-180360D01*
X796412Y-180646D01*
X796245Y-180898D01*
X748398Y-228745D01*
X748157Y-228908D01*
X747860Y-228968D01*
X746037Y-228968D01*
X743968Y-231037D01*
X743968Y-233963D01*
X746037Y-236032D01*
G37*
%LPD*%
G36*
X816645Y-274170D02*
X816348Y-274230D01*
X815105Y-274230D01*
X814841Y-274183D01*
X814583Y-274024D01*
X814408Y-273776D01*
X814343Y-273480D01*
X814398Y-273182D01*
X814566Y-272929D01*
X814782Y-272713D01*
X814782Y-270890D01*
X814838Y-270604D01*
X815005Y-270352D01*
X857020Y-228337D01*
X857020Y-142913D01*
X807590Y-93483D01*
X807432Y-93253D01*
X807367Y-92956D01*
X807422Y-92658D01*
X807590Y-92405D01*
X809782Y-90213D01*
X809782Y-87287D01*
X808493Y-85998D01*
X808330Y-85757D01*
X808270Y-85459D01*
X808270Y-16663D01*
X805005Y-13398D01*
X804842Y-13157D01*
X804782Y-12860D01*
X804782Y-11037D01*
X803493Y-9748D01*
X803330Y-9507D01*
X803270Y-9209D01*
X803270Y-6794D01*
X803321Y-6519D01*
X803485Y-6264D01*
X803735Y-6092D01*
X804032Y-6032D01*
X805213Y-6032D01*
X807282Y-3963D01*
X807282Y-1037D01*
X805213Y1032D01*
X802287Y1032D01*
X800218Y-1037D01*
X800218Y-2860D01*
X800162Y-3146D01*
X799995Y-3398D01*
X799230Y-4163D01*
X799230Y-9209D01*
X799174Y-9495D01*
X799007Y-9748D01*
X797718Y-11037D01*
X797718Y-13963D01*
X799787Y-16032D01*
X801610Y-16032D01*
X801896Y-16088D01*
X802148Y-16255D01*
X804007Y-18114D01*
X804170Y-18355D01*
X804230Y-18652D01*
X804230Y-85459D01*
X804174Y-85745D01*
X804007Y-85998D01*
X802595Y-87410D01*
X802364Y-87568D01*
X802068Y-87633D01*
X801770Y-87578D01*
X801517Y-87410D01*
X768755Y-54648D01*
X768592Y-54407D01*
X768532Y-54110D01*
X768532Y-52287D01*
X766463Y-50218D01*
X764640Y-50218D01*
X764354Y-50162D01*
X764102Y-49995D01*
X758337Y-44230D01*
X744163Y-44230D01*
X734386Y-54007D01*
X734145Y-54170D01*
X733848Y-54230D01*
X629541Y-54230D01*
X629255Y-54174D01*
X629002Y-54007D01*
X627590Y-52595D01*
X627432Y-52364D01*
X627367Y-52068D01*
X627422Y-51770D01*
X627590Y-51517D01*
X745614Y66507D01*
X747020Y67913D01*
X747020Y214209D01*
X747076Y214495D01*
X747243Y214748D01*
X748532Y216037D01*
X748532Y218963D01*
X746340Y221155D01*
X746182Y221386D01*
X746117Y221682D01*
X746172Y221980D01*
X746340Y222233D01*
X764364Y240257D01*
X764605Y240420D01*
X764902Y240480D01*
X795459Y240480D01*
X795745Y240424D01*
X795998Y240257D01*
X797410Y238845D01*
X797568Y238614D01*
X797633Y238318D01*
X797578Y238020D01*
X797410Y237767D01*
X770480Y210837D01*
X770480Y-9209D01*
X770424Y-9495D01*
X770257Y-9748D01*
X768968Y-11037D01*
X768968Y-13963D01*
X771037Y-16032D01*
X773963Y-16032D01*
X776032Y-13963D01*
X776032Y-11037D01*
X774743Y-9748D01*
X774580Y-9507D01*
X774520Y-9209D01*
X774520Y208848D01*
X774576Y209134D01*
X774743Y209386D01*
X781517Y216160D01*
X781748Y216318D01*
X782044Y216383D01*
X782342Y216328D01*
X782595Y216160D01*
X784787Y213968D01*
X786610Y213968D01*
X786896Y213912D01*
X787148Y213745D01*
X909007Y91886D01*
X909170Y91645D01*
X909230Y91348D01*
X909230Y-183645D01*
X909183Y-183909D01*
X909024Y-184167D01*
X908776Y-184342D01*
X908480Y-184407D01*
X908182Y-184352D01*
X907929Y-184184D01*
X907713Y-183968D01*
X904787Y-183968D01*
X902718Y-186037D01*
X902718Y-187860D01*
X902662Y-188146D01*
X902495Y-188398D01*
X816886Y-274007D01*
X816645Y-274170D01*
G37*
G36*
X311851Y178525D02*
X311556Y178455D01*
X311257Y178506D01*
X311002Y178669D01*
X310830Y178919D01*
X310770Y179216D01*
X310770Y212598D01*
X310826Y212884D01*
X310993Y213136D01*
X332767Y234910D01*
X332998Y235068D01*
X333294Y235133D01*
X333592Y235078D01*
X333845Y234910D01*
X336037Y232718D01*
X338963Y232718D01*
X340252Y234007D01*
X340493Y234170D01*
X340791Y234230D01*
X359209Y234230D01*
X359495Y234174D01*
X359748Y234007D01*
X361037Y232718D01*
X364272Y232718D01*
X364535Y232671D01*
X364793Y232512D01*
X364968Y232264D01*
X365034Y231968D01*
X364978Y231670D01*
X364810Y231417D01*
X312071Y178678D01*
X311851Y178525D01*
G37*
G36*
X372364Y98682D02*
X372068Y98617D01*
X371770Y98672D01*
X371517Y98840D01*
X344743Y125614D01*
X343337Y127020D01*
X339541Y127020D01*
X339255Y127076D01*
X339002Y127243D01*
X337713Y128532D01*
X334787Y128532D01*
X332595Y126340D01*
X332364Y126182D01*
X332068Y126117D01*
X331770Y126172D01*
X331517Y126340D01*
X305005Y152852D01*
X304842Y153093D01*
X304782Y153390D01*
X304782Y155213D01*
X302590Y157405D01*
X302432Y157636D01*
X302367Y157932D01*
X302422Y158230D01*
X302590Y158483D01*
X359017Y214910D01*
X359248Y215068D01*
X359544Y215133D01*
X359842Y215078D01*
X360095Y214910D01*
X362287Y212718D01*
X365213Y212718D01*
X367282Y214787D01*
X367282Y216610D01*
X367338Y216896D01*
X367505Y217148D01*
X375352Y224995D01*
X375593Y225158D01*
X375890Y225218D01*
X377713Y225218D01*
X378429Y225934D01*
X378649Y226087D01*
X378944Y226157D01*
X379243Y226106D01*
X379498Y225943D01*
X379670Y225693D01*
X379730Y225395D01*
X379730Y136291D01*
X379674Y136005D01*
X379507Y135752D01*
X378968Y135213D01*
X378968Y132287D01*
X381037Y130218D01*
X383963Y130218D01*
X386032Y132287D01*
X386032Y135213D01*
X385493Y135752D01*
X385330Y135993D01*
X385270Y136291D01*
X385270Y187718D01*
X385321Y187993D01*
X385485Y188248D01*
X385735Y188420D01*
X386032Y188480D01*
X397895Y188480D01*
X398159Y188433D01*
X398417Y188274D01*
X398592Y188026D01*
X398657Y187730D01*
X398602Y187432D01*
X398434Y187179D01*
X397718Y186463D01*
X397718Y183537D01*
X399787Y181468D01*
X401610Y181468D01*
X401896Y181412D01*
X402148Y181245D01*
X475072Y108321D01*
X475225Y108101D01*
X475295Y107806D01*
X475244Y107507D01*
X475081Y107252D01*
X474831Y107080D01*
X474534Y107020D01*
X382913Y107020D01*
X377148Y101255D01*
X376907Y101092D01*
X376610Y101032D01*
X374787Y101032D01*
X372595Y98840D01*
X372364Y98682D01*
G37*
G36*
X504764Y-189968D02*
X504468Y-190034D01*
X504170Y-189978D01*
X503917Y-189810D01*
X358493Y-44386D01*
X358330Y-44145D01*
X358270Y-43848D01*
X358270Y99587D01*
X356864Y100993D01*
X337590Y120267D01*
X337432Y120498D01*
X337367Y120794D01*
X337422Y121092D01*
X337590Y121345D01*
X339002Y122757D01*
X339243Y122920D01*
X339541Y122980D01*
X341348Y122980D01*
X341634Y122924D01*
X341886Y122757D01*
X374163Y90480D01*
X614587Y90480D01*
X740267Y216160D01*
X740498Y216318D01*
X740794Y216383D01*
X741092Y216328D01*
X741345Y216160D01*
X742757Y214748D01*
X742920Y214507D01*
X742980Y214209D01*
X742980Y69902D01*
X742924Y69616D01*
X742757Y69364D01*
X619230Y-54163D01*
X619230Y-184718D01*
X619179Y-184993D01*
X619015Y-185248D01*
X618765Y-185420D01*
X618468Y-185480D01*
X512041Y-185480D01*
X511755Y-185424D01*
X511502Y-185257D01*
X510213Y-183968D01*
X507287Y-183968D01*
X505218Y-186037D01*
X505218Y-189272D01*
X505171Y-189535D01*
X505012Y-189793D01*
X504764Y-189968D01*
G37*
%LPC*%
G36*
X473433Y25218D02*
X476567Y25218D01*
X478782Y27433D01*
X478782Y30567D01*
X476567Y32782D01*
X473433Y32782D01*
X471218Y30567D01*
X471218Y27433D01*
X473433Y25218D01*
G37*
G36*
X419433Y25218D02*
X422567Y25218D01*
X424782Y27433D01*
X424782Y30567D01*
X422567Y32782D01*
X419433Y32782D01*
X417218Y30567D01*
X417218Y27433D01*
X419433Y25218D01*
G37*
G36*
X455433Y25218D02*
X458567Y25218D01*
X460782Y27433D01*
X460782Y30567D01*
X458567Y32782D01*
X455433Y32782D01*
X453218Y30567D01*
X453218Y27433D01*
X455433Y25218D01*
G37*
G36*
X437433Y25218D02*
X440567Y25218D01*
X442782Y27433D01*
X442782Y30567D01*
X440567Y32782D01*
X437433Y32782D01*
X435218Y30567D01*
X435218Y27433D01*
X437433Y25218D01*
G37*
G36*
X401433Y25218D02*
X404567Y25218D01*
X406782Y27433D01*
X406782Y30567D01*
X404567Y32782D01*
X401433Y32782D01*
X399218Y30567D01*
X399218Y27433D01*
X401433Y25218D01*
G37*
G36*
X383433Y25218D02*
X386567Y25218D01*
X388782Y27433D01*
X388782Y30567D01*
X386567Y32782D01*
X383433Y32782D01*
X381218Y30567D01*
X381218Y27433D01*
X383433Y25218D01*
G37*
G36*
X473433Y7218D02*
X476567Y7218D01*
X478782Y9433D01*
X478782Y12567D01*
X476567Y14782D01*
X473433Y14782D01*
X471218Y12567D01*
X471218Y9433D01*
X473433Y7218D01*
G37*
G36*
X419433Y7218D02*
X422567Y7218D01*
X424782Y9433D01*
X424782Y12567D01*
X422567Y14782D01*
X419433Y14782D01*
X417218Y12567D01*
X417218Y9433D01*
X419433Y7218D01*
G37*
G36*
X455433Y7218D02*
X458567Y7218D01*
X460782Y9433D01*
X460782Y12567D01*
X458567Y14782D01*
X455433Y14782D01*
X453218Y12567D01*
X453218Y9433D01*
X455433Y7218D01*
G37*
G36*
X401433Y7218D02*
X404567Y7218D01*
X406782Y9433D01*
X406782Y12567D01*
X404567Y14782D01*
X401433Y14782D01*
X399218Y12567D01*
X399218Y9433D01*
X401433Y7218D01*
G37*
G36*
X383433Y7218D02*
X386567Y7218D01*
X388782Y9433D01*
X388782Y12567D01*
X386567Y14782D01*
X383433Y14782D01*
X381218Y12567D01*
X381218Y9433D01*
X383433Y7218D01*
G37*
G36*
X437433Y7218D02*
X440567Y7218D01*
X442782Y9433D01*
X442782Y12567D01*
X440567Y14782D01*
X437433Y14782D01*
X435218Y12567D01*
X435218Y9433D01*
X437433Y7218D01*
G37*
G36*
X437433Y-10782D02*
X440567Y-10782D01*
X442782Y-8567D01*
X442782Y-5433D01*
X440567Y-3218D01*
X437433Y-3218D01*
X435218Y-5433D01*
X435218Y-8567D01*
X437433Y-10782D01*
G37*
G36*
X419433Y-10782D02*
X422567Y-10782D01*
X424782Y-8567D01*
X424782Y-5433D01*
X422567Y-3218D01*
X419433Y-3218D01*
X417218Y-5433D01*
X417218Y-8567D01*
X419433Y-10782D01*
G37*
G36*
X401433Y-10782D02*
X404567Y-10782D01*
X406782Y-8567D01*
X406782Y-5433D01*
X404567Y-3218D01*
X401433Y-3218D01*
X399218Y-5433D01*
X399218Y-8567D01*
X401433Y-10782D01*
G37*
G36*
X383433Y-10782D02*
X386567Y-10782D01*
X388782Y-8567D01*
X388782Y-5433D01*
X386567Y-3218D01*
X383433Y-3218D01*
X381218Y-5433D01*
X381218Y-8567D01*
X383433Y-10782D01*
G37*
G36*
X473433Y-10782D02*
X476567Y-10782D01*
X478782Y-8567D01*
X478782Y-5433D01*
X476567Y-3218D01*
X473433Y-3218D01*
X471218Y-5433D01*
X471218Y-8567D01*
X473433Y-10782D01*
G37*
G36*
X455433Y-10782D02*
X458567Y-10782D01*
X460782Y-8567D01*
X460782Y-5433D01*
X458567Y-3218D01*
X455433Y-3218D01*
X453218Y-5433D01*
X453218Y-8567D01*
X455433Y-10782D01*
G37*
G36*
X455433Y-28782D02*
X458567Y-28782D01*
X460782Y-26567D01*
X460782Y-23433D01*
X458567Y-21218D01*
X455433Y-21218D01*
X453218Y-23433D01*
X453218Y-26567D01*
X455433Y-28782D01*
G37*
G36*
X437433Y-28782D02*
X440567Y-28782D01*
X442782Y-26567D01*
X442782Y-23433D01*
X440567Y-21218D01*
X437433Y-21218D01*
X435218Y-23433D01*
X435218Y-26567D01*
X437433Y-28782D01*
G37*
G36*
X473433Y-28782D02*
X476567Y-28782D01*
X478782Y-26567D01*
X478782Y-23433D01*
X476567Y-21218D01*
X473433Y-21218D01*
X471218Y-23433D01*
X471218Y-26567D01*
X473433Y-28782D01*
G37*
G36*
X419433Y-28782D02*
X422567Y-28782D01*
X424782Y-26567D01*
X424782Y-23433D01*
X422567Y-21218D01*
X419433Y-21218D01*
X417218Y-23433D01*
X417218Y-26567D01*
X419433Y-28782D01*
G37*
G36*
X401433Y-28782D02*
X404567Y-28782D01*
X406782Y-26567D01*
X406782Y-23433D01*
X404567Y-21218D01*
X401433Y-21218D01*
X399218Y-23433D01*
X399218Y-26567D01*
X401433Y-28782D01*
G37*
%LPD*%
G36*
X620395Y107080D02*
X620098Y107020D01*
X527605Y107020D01*
X527341Y107067D01*
X527083Y107226D01*
X526908Y107474D01*
X526843Y107770D01*
X526898Y108068D01*
X527066Y108321D01*
X527282Y108537D01*
X527282Y111463D01*
X525213Y113532D01*
X522287Y113532D01*
X520998Y112243D01*
X520757Y112080D01*
X520459Y112020D01*
X515105Y112020D01*
X514841Y112067D01*
X514583Y112226D01*
X514408Y112474D01*
X514343Y112770D01*
X514398Y113068D01*
X514566Y113321D01*
X514782Y113537D01*
X514782Y116463D01*
X513493Y117752D01*
X513330Y117993D01*
X513270Y118291D01*
X513270Y140098D01*
X513326Y140384D01*
X513493Y140636D01*
X531602Y158745D01*
X531843Y158908D01*
X532140Y158968D01*
X533963Y158968D01*
X536032Y161037D01*
X536032Y163963D01*
X533840Y166155D01*
X533682Y166386D01*
X533617Y166682D01*
X533672Y166980D01*
X533840Y167233D01*
X548114Y181507D01*
X548355Y181670D01*
X548652Y181730D01*
X577395Y181730D01*
X577659Y181683D01*
X577917Y181524D01*
X578092Y181276D01*
X578157Y180980D01*
X578102Y180682D01*
X577934Y180429D01*
X577718Y180213D01*
X577718Y177287D01*
X579787Y175218D01*
X581610Y175218D01*
X581896Y175162D01*
X582148Y174995D01*
X631245Y125898D01*
X631408Y125657D01*
X631468Y125360D01*
X631468Y123537D01*
X633660Y121345D01*
X633818Y121114D01*
X633883Y120818D01*
X633828Y120520D01*
X633660Y120267D01*
X620636Y107243D01*
X620395Y107080D01*
G37*
G36*
X528581Y-275420D02*
X528284Y-275480D01*
X508652Y-275480D01*
X508366Y-275424D01*
X508114Y-275257D01*
X501255Y-268398D01*
X501092Y-268157D01*
X501032Y-267860D01*
X501032Y-266037D01*
X498963Y-263968D01*
X497140Y-263968D01*
X496854Y-263912D01*
X496602Y-263745D01*
X367087Y-134230D01*
X327041Y-134230D01*
X326755Y-134174D01*
X326502Y-134007D01*
X325213Y-132718D01*
X322287Y-132718D01*
X320218Y-134787D01*
X320218Y-136772D01*
X320171Y-137035D01*
X320012Y-137293D01*
X319764Y-137468D01*
X319468Y-137534D01*
X319170Y-137478D01*
X318917Y-137310D01*
X294743Y-113136D01*
X294580Y-112895D01*
X294520Y-112598D01*
X294520Y150098D01*
X294576Y150384D01*
X294743Y150636D01*
X296517Y152410D01*
X296748Y152568D01*
X297044Y152633D01*
X297342Y152578D01*
X297595Y152410D01*
X299787Y150218D01*
X301610Y150218D01*
X301896Y150162D01*
X302148Y149995D01*
X354007Y98136D01*
X354170Y97895D01*
X354230Y97598D01*
X354230Y-45837D01*
X502913Y-194520D01*
X623848Y-194520D01*
X624134Y-194576D01*
X624386Y-194743D01*
X700072Y-270429D01*
X700225Y-270649D01*
X700295Y-270944D01*
X700244Y-271243D01*
X700081Y-271498D01*
X699831Y-271670D01*
X699534Y-271730D01*
X532402Y-271730D01*
X532116Y-271674D01*
X531864Y-271507D01*
X515005Y-254648D01*
X514842Y-254407D01*
X514782Y-254110D01*
X514782Y-252287D01*
X512713Y-250218D01*
X509787Y-250218D01*
X507718Y-252287D01*
X507718Y-255213D01*
X509787Y-257282D01*
X511610Y-257282D01*
X511896Y-257338D01*
X512148Y-257505D01*
X528822Y-274179D01*
X528975Y-274399D01*
X529045Y-274694D01*
X528994Y-274993D01*
X528831Y-275248D01*
X528581Y-275420D01*
G37*
G36*
X507693Y112080D02*
X507395Y112020D01*
X492966Y112020D01*
X492703Y112067D01*
X492445Y112226D01*
X492270Y112474D01*
X492204Y112770D01*
X492260Y113068D01*
X492428Y113321D01*
X495352Y116245D01*
X495593Y116408D01*
X495890Y116468D01*
X497713Y116468D01*
X499782Y118537D01*
X499782Y121463D01*
X497713Y123532D01*
X494787Y123532D01*
X492718Y121463D01*
X492718Y119640D01*
X492662Y119354D01*
X492495Y119102D01*
X490636Y117243D01*
X490395Y117080D01*
X490098Y117020D01*
X489902Y117020D01*
X489616Y117076D01*
X489364Y117243D01*
X487243Y119364D01*
X487080Y119605D01*
X487020Y119902D01*
X487020Y120098D01*
X487076Y120384D01*
X487243Y120636D01*
X507929Y141322D01*
X508149Y141475D01*
X508444Y141545D01*
X508743Y141494D01*
X508998Y141331D01*
X509170Y141081D01*
X509230Y140784D01*
X509230Y118291D01*
X509174Y118005D01*
X509007Y117752D01*
X507718Y116463D01*
X507718Y113537D01*
X507934Y113321D01*
X508087Y113101D01*
X508157Y112806D01*
X508106Y112507D01*
X507943Y112252D01*
X507693Y112080D01*
G37*
G36*
X612895Y94580D02*
X612598Y94520D01*
X380105Y94520D01*
X379841Y94567D01*
X379583Y94726D01*
X379408Y94974D01*
X379343Y95270D01*
X379398Y95568D01*
X379566Y95821D01*
X379782Y96037D01*
X379782Y97860D01*
X379838Y98146D01*
X380005Y98398D01*
X384364Y102757D01*
X384605Y102920D01*
X384902Y102980D01*
X619534Y102980D01*
X619797Y102933D01*
X620055Y102774D01*
X620230Y102526D01*
X620296Y102230D01*
X620240Y101932D01*
X620072Y101679D01*
X613136Y94743D01*
X612895Y94580D01*
G37*
G36*
X749145Y-267920D02*
X748848Y-267980D01*
X703652Y-267980D01*
X703366Y-267924D01*
X703114Y-267757D01*
X699928Y-264571D01*
X699775Y-264351D01*
X699705Y-264056D01*
X699756Y-263757D01*
X699919Y-263502D01*
X700169Y-263330D01*
X700466Y-263270D01*
X750459Y-263270D01*
X750745Y-263326D01*
X750998Y-263493D01*
X751785Y-264280D01*
X751943Y-264511D01*
X752008Y-264807D01*
X751953Y-265105D01*
X751785Y-265358D01*
X749386Y-267757D01*
X749145Y-267920D01*
G37*
G36*
X278375Y150060D02*
X278078Y150000D01*
X264316Y150000D01*
X264030Y150056D01*
X263777Y150223D01*
X212223Y201777D01*
X212060Y202018D01*
X212000Y202316D01*
X212000Y241238D01*
X212051Y241513D01*
X212215Y241768D01*
X212465Y241940D01*
X212762Y242000D01*
X228939Y242000D01*
X229225Y241944D01*
X229478Y241777D01*
X229787Y241468D01*
X231610Y241468D01*
X231896Y241412D01*
X232148Y241245D01*
X295413Y177980D01*
X300459Y177980D01*
X300745Y177924D01*
X300998Y177757D01*
X302287Y176468D01*
X303022Y176468D01*
X303285Y176421D01*
X303543Y176262D01*
X303718Y176014D01*
X303784Y175718D01*
X303728Y175420D01*
X303560Y175167D01*
X278616Y150223D01*
X278375Y150060D01*
G37*
G36*
X300757Y182080D02*
X300459Y182020D01*
X297402Y182020D01*
X297116Y182076D01*
X296864Y182243D01*
X238408Y240699D01*
X238255Y240919D01*
X238185Y241214D01*
X238236Y241513D01*
X238399Y241768D01*
X238649Y241940D01*
X238946Y242000D01*
X328684Y242000D01*
X328970Y241944D01*
X329223Y241777D01*
X331033Y239967D01*
X331191Y239737D01*
X331256Y239441D01*
X331200Y239142D01*
X331033Y238890D01*
X306730Y214587D01*
X306730Y183855D01*
X306683Y183591D01*
X306524Y183333D01*
X306276Y183158D01*
X305980Y183093D01*
X305682Y183148D01*
X305429Y183316D01*
X305213Y183532D01*
X302287Y183532D01*
X300998Y182243D01*
X300757Y182080D01*
G37*
G36*
X311851Y182918D02*
X311556Y182848D01*
X311257Y182899D01*
X311002Y183062D01*
X310830Y183312D01*
X310770Y183610D01*
X310770Y212598D01*
X310826Y212884D01*
X310993Y213136D01*
X332767Y234910D01*
X332998Y235068D01*
X333294Y235133D01*
X333592Y235078D01*
X333845Y234910D01*
X336037Y232718D01*
X337966Y232718D01*
X338252Y232662D01*
X338505Y232495D01*
X349461Y221539D01*
X349619Y221308D01*
X349684Y221012D01*
X349629Y220714D01*
X349461Y220461D01*
X312071Y183071D01*
X311851Y182918D01*
G37*
G36*
X522487Y-261441D02*
X522191Y-261506D01*
X521892Y-261450D01*
X521640Y-261283D01*
X515005Y-254648D01*
X514842Y-254407D01*
X514782Y-254110D01*
X514782Y-252287D01*
X512713Y-250218D01*
X510534Y-250218D01*
X510248Y-250162D01*
X509995Y-249995D01*
X481301Y-221301D01*
X481148Y-221081D01*
X481078Y-220786D01*
X481129Y-220487D01*
X481292Y-220232D01*
X481542Y-220060D01*
X481840Y-220000D01*
X535684Y-220000D01*
X535970Y-220056D01*
X536223Y-220223D01*
X538777Y-222777D01*
X538940Y-223018D01*
X539000Y-223316D01*
X539000Y-244684D01*
X538944Y-244970D01*
X538777Y-245223D01*
X522717Y-261283D01*
X522487Y-261441D01*
G37*
G36*
X737535Y-267920D02*
X737238Y-267980D01*
X709762Y-267980D01*
X709487Y-267929D01*
X709232Y-267765D01*
X709060Y-267515D01*
X709000Y-267218D01*
X709000Y-264032D01*
X709051Y-263757D01*
X709215Y-263502D01*
X709465Y-263330D01*
X709762Y-263270D01*
X737238Y-263270D01*
X737513Y-263321D01*
X737768Y-263485D01*
X737940Y-263735D01*
X738000Y-264032D01*
X738000Y-267218D01*
X737949Y-267493D01*
X737785Y-267748D01*
X737535Y-267920D01*
G37*
G36*
X499458Y165060D02*
X499160Y165000D01*
X427316Y165000D01*
X427030Y165056D01*
X426777Y165223D01*
X420301Y171699D01*
X420148Y171919D01*
X420078Y172214D01*
X420129Y172513D01*
X420292Y172768D01*
X420542Y172940D01*
X420840Y173000D01*
X492684Y173000D01*
X492970Y172944D01*
X493223Y172777D01*
X499699Y166301D01*
X499852Y166081D01*
X499922Y165786D01*
X499871Y165487D01*
X499708Y165232D01*
X499458Y165060D01*
G37*
G36*
X520081Y-11852D02*
X519786Y-11922D01*
X519487Y-11871D01*
X519232Y-11708D01*
X519060Y-11458D01*
X519000Y-11160D01*
X519000Y52238D01*
X519051Y52513D01*
X519215Y52768D01*
X519465Y52940D01*
X519762Y53000D01*
X521684Y53000D01*
X521970Y52944D01*
X522223Y52777D01*
X522777Y52223D01*
X522940Y51982D01*
X523000Y51684D01*
X523000Y-8684D01*
X522944Y-8970D01*
X522777Y-9223D01*
X520301Y-11699D01*
X520081Y-11852D01*
G37*
G36*
X504081Y116148D02*
X503786Y116078D01*
X503487Y116129D01*
X503232Y116292D01*
X503060Y116542D01*
X503000Y116840D01*
X503000Y133684D01*
X503056Y133970D01*
X503223Y134223D01*
X507699Y138699D01*
X507919Y138852D01*
X508214Y138922D01*
X508513Y138871D01*
X508768Y138708D01*
X508940Y138458D01*
X509000Y138160D01*
X509000Y121316D01*
X508944Y121030D01*
X508777Y120777D01*
X504301Y116301D01*
X504081Y116148D01*
G37*
G36*
X553458Y114060D02*
X553160Y114000D01*
X552316Y114000D01*
X552030Y114056D01*
X551777Y114223D01*
X523301Y142699D01*
X523148Y142919D01*
X523078Y143214D01*
X523129Y143513D01*
X523292Y143768D01*
X523542Y143940D01*
X523840Y144000D01*
X524684Y144000D01*
X524970Y143944D01*
X525223Y143777D01*
X553699Y115301D01*
X553852Y115081D01*
X553922Y114786D01*
X553871Y114487D01*
X553708Y114232D01*
X553458Y114060D01*
G37*
G36*
X772982Y214060D02*
X772684Y214000D01*
X748840Y214000D01*
X748576Y214047D01*
X748318Y214206D01*
X748143Y214454D01*
X748078Y214750D01*
X748133Y215048D01*
X748301Y215301D01*
X748777Y215777D01*
X749018Y215940D01*
X749316Y216000D01*
X773160Y216000D01*
X773424Y215953D01*
X773682Y215794D01*
X773857Y215546D01*
X773922Y215250D01*
X773867Y214952D01*
X773699Y214699D01*
X773223Y214223D01*
X772982Y214060D01*
G37*
D10*
X1710000Y63000D03*
D11*
X1748074Y85450D02*
X1750450Y85450D01*
X1759000Y94000D01*
X1725624Y63000D02*
X1710000Y63000D01*
X1725624Y63000D02*
X1748074Y85450D01*
X1759000Y94000D02*
X1759000Y95000D01*
D10*
X1759000Y95000D03*
D12*
X1597500Y-247500D02*
X1597500Y-303750D01*
X1597500Y-247500D02*
X1506250Y-156250D01*
X1505000Y-156250D01*
X1013750Y27500D02*
X973750Y-12500D01*
D13*
X1597500Y-303750D03*
X1505000Y-156250D03*
X1013750Y27500D03*
X973750Y-12500D03*
D12*
X1717500Y87500D02*
X1723750Y87500D01*
X1730000Y93750D01*
D13*
X1717500Y87500D03*
X1730000Y93750D03*
D12*
X1696250Y162500D02*
X1685000Y162500D01*
X1696250Y162500D02*
X1730000Y128750D01*
X1737500Y128750D01*
X1751250Y115000D01*
D13*
X1685000Y162500D03*
X1751250Y115000D03*
D12*
X1712500Y136250D02*
X1675000Y136250D01*
X1712500Y136250D02*
X1725000Y123750D01*
X1725000Y118750D01*
X1730000Y113750D01*
D13*
X1675000Y136250D03*
X1730000Y113750D03*
D12*
X1706250Y140000D02*
X1702500Y143750D01*
X1706250Y140000D02*
X1713750Y140000D01*
X1730000Y123750D01*
D13*
X1702500Y143750D03*
X1730000Y123750D03*
D12*
X1628750Y162500D02*
X1555000Y236250D01*
X926250Y236250D01*
X918750Y243750D01*
X918750Y245000D01*
X915000Y248750D01*
X818750Y248750D01*
X805000Y262500D01*
X778750Y262500D01*
X621250Y105000D01*
X383750Y105000D01*
X376250Y97500D01*
D13*
X1628750Y162500D03*
X376250Y97500D03*
D12*
X1488750Y-1250D02*
X1505000Y-17500D01*
X1488750Y-1250D02*
X1481250Y-1250D01*
D13*
X1505000Y-17500D03*
X1481250Y-1250D03*
D11*
X348750Y531250D02*
X228750Y531250D01*
X348750Y531250D02*
X352500Y535000D01*
X381250Y393750D02*
X380000Y392500D01*
X380000Y276250D01*
X382500Y273750D01*
X382500Y191250D02*
X382500Y133750D01*
X382500Y191250D02*
X382500Y273750D01*
X1640000Y-251250D02*
X1645000Y-251250D01*
X1640000Y-251250D02*
X1637500Y-253750D01*
X1635000Y-253750D01*
X1628750Y-247500D01*
X548750Y191250D02*
X382500Y191250D01*
X548750Y191250D02*
X557500Y200000D01*
X605000Y200000D01*
X626250Y178750D01*
D13*
X228750Y531250D03*
X352500Y535000D03*
X381250Y393750D03*
X382500Y133750D03*
X1645000Y-251250D03*
X1628750Y-247500D03*
X626250Y178750D03*
D12*
X401250Y-228750D02*
X400000Y-230000D01*
X315000Y-230000D01*
X218750Y-133750D01*
X201250Y516250D02*
X205000Y520000D01*
X201250Y516250D02*
X201250Y476250D01*
X207500Y470000D01*
X207500Y438750D01*
X216250Y268750D02*
X205000Y257500D01*
X205000Y182500D01*
X250000Y137500D01*
X250000Y95000D01*
D13*
X401250Y-228750D03*
X218750Y-133750D03*
X205000Y520000D03*
X207500Y438750D03*
X216250Y268750D03*
X250000Y95000D03*
D12*
X752500Y-273750D02*
X755000Y-271250D01*
X752500Y-273750D02*
X531250Y-273750D01*
X511250Y-253750D01*
X632500Y140000D02*
X633750Y141250D01*
X633750Y233750D01*
X632500Y235000D01*
X210000Y-86250D02*
X196250Y-100000D01*
X210000Y-86250D02*
X210000Y41250D01*
X247500Y78750D01*
X267500Y78750D01*
X275000Y71250D01*
X275000Y70000D01*
X208750Y277500D02*
X206250Y280000D01*
X208750Y277500D02*
X248750Y277500D01*
X255000Y283750D01*
X345000Y283750D01*
X367500Y261250D01*
X367500Y243750D02*
X367500Y231250D01*
X367500Y243750D02*
X367500Y261250D01*
X367500Y231250D02*
X288750Y152500D01*
X288750Y96250D01*
X287500Y95000D01*
X366250Y243750D02*
X367500Y243750D01*
X382500Y-237500D02*
X387500Y-242500D01*
X382500Y-237500D02*
X312500Y-237500D01*
X217500Y-142500D01*
X216250Y-142500D01*
X210000Y-136250D01*
X210000Y-86250D01*
D13*
X755000Y-271250D03*
X511250Y-253750D03*
X632500Y140000D03*
X632500Y235000D03*
X196250Y-100000D03*
X275000Y70000D03*
X206250Y280000D03*
X287500Y95000D03*
X366250Y243750D03*
X387500Y-242500D03*
D12*
X755000Y-276250D02*
X760000Y-276250D01*
X755000Y-276250D02*
X753750Y-277500D01*
X507500Y-277500D01*
X497500Y-267500D01*
X366250Y-136250D02*
X323750Y-136250D01*
X366250Y-136250D02*
X497500Y-267500D01*
X641250Y160000D02*
X641250Y265000D01*
X275000Y118750D02*
X262500Y131250D01*
X247500Y146250D01*
X352500Y257500D02*
X352500Y270000D01*
X352500Y257500D02*
X308750Y213750D01*
X308750Y177500D01*
X262500Y131250D01*
X285000Y91250D02*
X285000Y-98750D01*
X285000Y91250D02*
X275000Y101250D01*
X275000Y118750D01*
D13*
X760000Y-276250D03*
X497500Y-267500D03*
X323750Y-136250D03*
X641250Y160000D03*
X641250Y265000D03*
X247500Y146250D03*
X275000Y118750D03*
X352500Y270000D03*
X285000Y-98750D03*
D12*
X296250Y180000D02*
X303750Y180000D01*
X296250Y180000D02*
X231250Y245000D01*
X202500Y528750D02*
X202500Y570000D01*
X202500Y528750D02*
X227500Y503750D01*
X511250Y141250D02*
X511250Y115000D01*
X511250Y141250D02*
X532500Y162500D01*
D13*
X303750Y180000D03*
X231250Y245000D03*
X202500Y570000D03*
X227500Y503750D03*
X511250Y115000D03*
X532500Y162500D03*
D12*
X698750Y-261250D02*
X753750Y-261250D01*
X698750Y-261250D02*
X625000Y-187500D01*
X621250Y-187500D02*
X508750Y-187500D01*
X621250Y-187500D02*
X625000Y-187500D01*
X745000Y68750D02*
X745000Y217500D01*
X745000Y68750D02*
X621250Y-55000D01*
X621250Y-187500D01*
D13*
X753750Y-261250D03*
X508750Y-187500D03*
X745000Y217500D03*
D12*
X531250Y178750D02*
X472500Y120000D01*
X403750Y-218750D02*
X458750Y-273750D01*
X403750Y-218750D02*
X351250Y-166250D01*
D13*
X531250Y178750D03*
X472500Y120000D03*
X458750Y-273750D03*
X403750Y-218750D03*
X351250Y-166250D03*
D12*
X371250Y558750D02*
X402500Y590000D01*
X402500Y591250D02*
X423750Y612500D01*
X402500Y591250D02*
X402500Y590000D01*
D13*
X402500Y590000D03*
X371250Y558750D03*
X423750Y612500D03*
D12*
X300000Y268750D02*
X250000Y268750D01*
D13*
X250000Y268750D03*
X300000Y268750D03*
D12*
X352500Y356250D02*
X366250Y356250D01*
D13*
X352500Y356250D03*
X366250Y356250D03*
D12*
X803750Y257500D02*
X995000Y66250D01*
D13*
X803750Y257500D03*
X995000Y66250D03*
D12*
X635000Y125000D02*
X581250Y178750D01*
D13*
X581250Y178750D03*
X635000Y125000D03*
D12*
X523750Y110000D02*
X476250Y110000D01*
X401250Y185000D01*
D13*
X523750Y110000D03*
X401250Y185000D03*
D12*
X1537500Y-148750D02*
X1635000Y-246250D01*
X1683750Y-283750D02*
X1683750Y-332500D01*
X1683750Y-283750D02*
X1646250Y-246250D01*
X1635000Y-246250D01*
X1636250Y-247500D01*
X362500Y236250D02*
X337500Y236250D01*
X1296250Y-148750D02*
X1537500Y-148750D01*
X1296250Y-148750D02*
X1013750Y133750D01*
X983750Y133750D01*
D13*
X1537500Y-148750D03*
X1636250Y-247500D03*
X1683750Y-332500D03*
X337500Y236250D03*
X362500Y236250D03*
X983750Y133750D03*
D12*
X793750Y382500D02*
X440000Y382500D01*
X793750Y382500D02*
X935000Y241250D01*
X1026250Y116250D02*
X1303750Y-161250D01*
X1026250Y116250D02*
X986250Y116250D01*
D13*
X440000Y382500D03*
X935000Y241250D03*
X1303750Y-161250D03*
X986250Y116250D03*
D12*
X911250Y-198750D02*
X810000Y-300000D01*
X911250Y-198750D02*
X911250Y92500D01*
X786250Y217500D01*
X376250Y228750D02*
X363750Y216250D01*
D13*
X810000Y-300000D03*
X786250Y217500D03*
X363750Y216250D03*
X376250Y228750D03*
D12*
X680000Y612500D02*
X733750Y612500D01*
X680000Y612500D02*
X620000Y552500D01*
X518750Y552500D01*
X236250Y146250D02*
X236250Y100000D01*
X236250Y146250D02*
X201250Y181250D01*
X201250Y330000D01*
X437500Y566250D01*
X441250Y620000D02*
X401250Y660000D01*
X441250Y620000D02*
X441250Y570000D01*
X437500Y566250D01*
D13*
X733750Y612500D03*
X518750Y552500D03*
X236250Y100000D03*
X437500Y566250D03*
X401250Y660000D03*
D12*
X903750Y231250D02*
X941250Y193750D01*
X342500Y125000D02*
X336250Y125000D01*
X342500Y125000D02*
X375000Y92500D01*
X613750Y92500D01*
X763750Y242500D01*
X798750Y242500D01*
D13*
X941250Y193750D03*
X903750Y231250D03*
X336250Y125000D03*
X798750Y242500D03*
D12*
X948750Y145000D02*
X966250Y162500D01*
X496250Y120000D02*
X491250Y115000D01*
X488750Y115000D01*
X485000Y118750D01*
X485000Y121250D01*
X547500Y183750D01*
X582500Y183750D01*
X626250Y140000D01*
D13*
X966250Y162500D03*
X948750Y145000D03*
X496250Y120000D03*
X626250Y140000D03*
D12*
X760000Y-270000D02*
X770000Y-270000D01*
X760000Y-270000D02*
X756250Y-266250D01*
X753750Y-266250D01*
X750000Y-270000D01*
X702500Y-270000D01*
X625000Y-192500D01*
X503750Y-192500D01*
X356250Y-45000D01*
X356250Y98750D01*
X301250Y153750D01*
X386250Y388750D02*
X450000Y388750D01*
D13*
X770000Y-270000D03*
X301250Y153750D03*
X450000Y388750D03*
X386250Y388750D03*
D12*
X762500Y-293750D02*
X765000Y-293750D01*
X762500Y-293750D02*
X757500Y-288750D01*
X510000Y-288750D01*
X507500Y-291250D01*
X470000Y-291250D01*
X292500Y-113750D02*
X285000Y-106250D01*
X292500Y-113750D02*
X470000Y-291250D01*
X285000Y-106250D02*
X283750Y-106250D01*
X268750Y-91250D01*
X268750Y70000D01*
X371250Y230000D02*
X371250Y416250D01*
X371250Y230000D02*
X292500Y151250D01*
X292500Y-113750D01*
D13*
X765000Y-293750D03*
X268750Y70000D03*
X371250Y416250D03*
D12*
X455000Y557500D02*
X618750Y557500D01*
X677500Y616250D01*
X376250Y478750D02*
X376250Y272500D01*
X376250Y478750D02*
X455000Y557500D01*
X677500Y616250D02*
X700000Y638750D01*
D13*
X455000Y557500D03*
X677500Y616250D03*
X376250Y272500D03*
X700000Y638750D03*
D12*
X1380000Y-41250D02*
X1342500Y-78750D01*
D13*
X1380000Y-41250D03*
X1342500Y-78750D03*
D12*
X1358750Y-68750D02*
X1382500Y-68750D01*
X1383750Y-70000D01*
D13*
X1358750Y-68750D03*
X1383750Y-70000D03*
D12*
X805000Y-256250D02*
X710000Y-256250D01*
X805000Y-256250D02*
X840000Y-221250D01*
D13*
X710000Y-256250D03*
X840000Y-221250D03*
D12*
X801250Y-12500D02*
X801250Y-5000D01*
X803750Y-2500D01*
X806250Y-17500D02*
X806250Y-88750D01*
X806250Y-17500D02*
X801250Y-12500D01*
D13*
X801250Y-12500D03*
X803750Y-2500D03*
X806250Y-88750D03*
D12*
X855000Y-227500D02*
X811250Y-271250D01*
X855000Y-227500D02*
X855000Y-143750D01*
X765000Y-53750D01*
X735000Y-56250D02*
X626250Y-56250D01*
X735000Y-56250D02*
X745000Y-46250D01*
X757500Y-46250D01*
X765000Y-53750D01*
D13*
X811250Y-271250D03*
X765000Y-53750D03*
X626250Y-56250D03*
D12*
X772500Y-12500D02*
X772500Y210000D01*
X803750Y241250D01*
X803750Y251250D01*
D13*
X772500Y-12500D03*
X803750Y251250D03*
D12*
X851250Y-225000D02*
X816250Y-260000D01*
X851250Y-225000D02*
X851250Y-176250D01*
X746250Y-71250D01*
X746250Y-63750D02*
X746250Y-51250D01*
X746250Y-63750D02*
X746250Y-71250D01*
X746250Y-63750D02*
X626250Y-63750D01*
D13*
X816250Y-260000D03*
X746250Y-51250D03*
X626250Y-63750D03*
D12*
X721250Y-303750D02*
X800000Y-303750D01*
X887500Y-216250D01*
D13*
X721250Y-303750D03*
X887500Y-216250D03*
D12*
X800000Y-180000D02*
X747500Y-232500D01*
D13*
X747500Y-232500D03*
X800000Y-180000D03*
D12*
X801250Y-276250D02*
X817500Y-276250D01*
X906250Y-187500D01*
D13*
X801250Y-276250D03*
X906250Y-187500D03*
D12*
X436250Y618750D02*
X362500Y618750D01*
D13*
X362500Y618750D03*
X436250Y618750D03*
D12*
X977500Y33750D02*
X1102500Y33750D01*
D13*
X977500Y33750D03*
X1102500Y33750D03*
D10*
X475000Y29000D03*
X457000Y29000D03*
X439000Y29000D03*
X421000Y29000D03*
X403000Y29000D03*
X385000Y29000D03*
X475000Y11000D03*
X457000Y11000D03*
X439000Y11000D03*
X421000Y11000D03*
X403000Y11000D03*
X385000Y11000D03*
X475000Y-7000D03*
X457000Y-7000D03*
X439000Y-7000D03*
X403000Y-25000D03*
X421000Y-25000D03*
X439000Y-25000D03*
X457000Y-25000D03*
X475000Y-25000D03*
X385000Y-7000D03*
X403000Y-7000D03*
X421000Y-7000D03*
M02*
